%TF.GenerationSoftware,KiCad,Pcbnew,9.0.0*%
%TF.CreationDate,2025-04-25T12:11:26-04:00*%
%TF.ProjectId,PawPlans,50617750-6c61-46e7-932e-6b696361645f,0.5.0*%
%TF.SameCoordinates,Original*%
%TF.FileFunction,AssemblyDrawing,Top*%
%FSLAX46Y46*%
G04 Gerber Fmt 4.6, Leading zero omitted, Abs format (unit mm)*
G04 Created by KiCad (PCBNEW 9.0.0) date 2025-04-25 12:11:26*
%MOMM*%
%LPD*%
G01*
G04 APERTURE LIST*
%ADD10C,0.100000*%
G04 APERTURE END LIST*
D10*
%TO.C,DM_PORT_A1*%
X98730000Y-62380000D02*
X108890000Y-62380000D01*
X98730000Y-64285000D02*
X98730000Y-62380000D01*
X99365000Y-64920000D02*
X98730000Y-64285000D01*
X108890000Y-62380000D02*
X108890000Y-64920000D01*
X108890000Y-64920000D02*
X99365000Y-64920000D01*
%TO.C,DM_PORT_B1*%
X98730000Y-57730000D02*
X108890000Y-57730000D01*
X98730000Y-59635000D02*
X98730000Y-57730000D01*
X99365000Y-60270000D02*
X98730000Y-59635000D01*
X108890000Y-57730000D02*
X108890000Y-60270000D01*
X108890000Y-60270000D02*
X99365000Y-60270000D01*
%TO.C,LD_CELL_AMP1*%
X103530000Y-66890000D02*
X104165000Y-66255000D01*
X103530000Y-76415000D02*
X103530000Y-66890000D01*
X104165000Y-66255000D02*
X106070000Y-66255000D01*
X106070000Y-66255000D02*
X106070000Y-76415000D01*
X106070000Y-76415000D02*
X103530000Y-76415000D01*
%TO.C,SERVO1*%
X107730000Y-68165000D02*
X108365000Y-67530000D01*
X107730000Y-75150000D02*
X107730000Y-68165000D01*
X108365000Y-67530000D02*
X110270000Y-67530000D01*
X110270000Y-67530000D02*
X110270000Y-75150000D01*
X110270000Y-75150000D02*
X107730000Y-75150000D01*
%TO.C,PROXY1*%
X98730000Y-66890000D02*
X99365000Y-66255000D01*
X98730000Y-76415000D02*
X98730000Y-66890000D01*
X99365000Y-66255000D02*
X101270000Y-66255000D01*
X101270000Y-66255000D02*
X101270000Y-76415000D01*
X101270000Y-76415000D02*
X98730000Y-76415000D01*
%TD*%
M02*
