%TF.GenerationSoftware,KiCad,Pcbnew,9.0.0*%
%TF.CreationDate,2025-04-25T12:11:25-04:00*%
%TF.ProjectId,PawPlans,50617750-6c61-46e7-932e-6b696361645f,0.5.0*%
%TF.SameCoordinates,Original*%
%TF.FileFunction,Legend,Top*%
%TF.FilePolarity,Positive*%
%FSLAX46Y46*%
G04 Gerber Fmt 4.6, Leading zero omitted, Abs format (unit mm)*
G04 Created by KiCad (PCBNEW 9.0.0) date 2025-04-25 12:11:25*
%MOMM*%
%LPD*%
G01*
G04 APERTURE LIST*
%ADD10C,0.062500*%
%ADD11C,0.120000*%
G04 APERTURE END LIST*
D10*
X98360165Y-61535559D02*
X98360165Y-61035559D01*
X98360165Y-61035559D02*
X98479213Y-61035559D01*
X98479213Y-61035559D02*
X98550641Y-61059369D01*
X98550641Y-61059369D02*
X98598260Y-61106988D01*
X98598260Y-61106988D02*
X98622070Y-61154607D01*
X98622070Y-61154607D02*
X98645879Y-61249845D01*
X98645879Y-61249845D02*
X98645879Y-61321273D01*
X98645879Y-61321273D02*
X98622070Y-61416511D01*
X98622070Y-61416511D02*
X98598260Y-61464130D01*
X98598260Y-61464130D02*
X98550641Y-61511750D01*
X98550641Y-61511750D02*
X98479213Y-61535559D01*
X98479213Y-61535559D02*
X98360165Y-61535559D01*
X98860165Y-61535559D02*
X98860165Y-61035559D01*
X98860165Y-61035559D02*
X99026832Y-61392702D01*
X99026832Y-61392702D02*
X99193498Y-61035559D01*
X99193498Y-61035559D02*
X99193498Y-61535559D01*
X99312547Y-61583178D02*
X99693499Y-61583178D01*
X99812546Y-61535559D02*
X99812546Y-61035559D01*
X99812546Y-61035559D02*
X100003022Y-61035559D01*
X100003022Y-61035559D02*
X100050641Y-61059369D01*
X100050641Y-61059369D02*
X100074451Y-61083178D01*
X100074451Y-61083178D02*
X100098260Y-61130797D01*
X100098260Y-61130797D02*
X100098260Y-61202226D01*
X100098260Y-61202226D02*
X100074451Y-61249845D01*
X100074451Y-61249845D02*
X100050641Y-61273654D01*
X100050641Y-61273654D02*
X100003022Y-61297464D01*
X100003022Y-61297464D02*
X99812546Y-61297464D01*
X100407784Y-61035559D02*
X100503022Y-61035559D01*
X100503022Y-61035559D02*
X100550641Y-61059369D01*
X100550641Y-61059369D02*
X100598260Y-61106988D01*
X100598260Y-61106988D02*
X100622070Y-61202226D01*
X100622070Y-61202226D02*
X100622070Y-61368892D01*
X100622070Y-61368892D02*
X100598260Y-61464130D01*
X100598260Y-61464130D02*
X100550641Y-61511750D01*
X100550641Y-61511750D02*
X100503022Y-61535559D01*
X100503022Y-61535559D02*
X100407784Y-61535559D01*
X100407784Y-61535559D02*
X100360165Y-61511750D01*
X100360165Y-61511750D02*
X100312546Y-61464130D01*
X100312546Y-61464130D02*
X100288737Y-61368892D01*
X100288737Y-61368892D02*
X100288737Y-61202226D01*
X100288737Y-61202226D02*
X100312546Y-61106988D01*
X100312546Y-61106988D02*
X100360165Y-61059369D01*
X100360165Y-61059369D02*
X100407784Y-61035559D01*
X101122070Y-61535559D02*
X100955404Y-61297464D01*
X100836356Y-61535559D02*
X100836356Y-61035559D01*
X100836356Y-61035559D02*
X101026832Y-61035559D01*
X101026832Y-61035559D02*
X101074451Y-61059369D01*
X101074451Y-61059369D02*
X101098261Y-61083178D01*
X101098261Y-61083178D02*
X101122070Y-61130797D01*
X101122070Y-61130797D02*
X101122070Y-61202226D01*
X101122070Y-61202226D02*
X101098261Y-61249845D01*
X101098261Y-61249845D02*
X101074451Y-61273654D01*
X101074451Y-61273654D02*
X101026832Y-61297464D01*
X101026832Y-61297464D02*
X100836356Y-61297464D01*
X101264928Y-61035559D02*
X101550642Y-61035559D01*
X101407785Y-61535559D02*
X101407785Y-61035559D01*
X101598261Y-61583178D02*
X101979213Y-61583178D01*
X102074451Y-61392702D02*
X102312546Y-61392702D01*
X102026832Y-61535559D02*
X102193498Y-61035559D01*
X102193498Y-61035559D02*
X102360165Y-61535559D01*
X102788736Y-61535559D02*
X102503022Y-61535559D01*
X102645879Y-61535559D02*
X102645879Y-61035559D01*
X102645879Y-61035559D02*
X102598260Y-61106988D01*
X102598260Y-61106988D02*
X102550641Y-61154607D01*
X102550641Y-61154607D02*
X102503022Y-61178416D01*
X98380165Y-56935559D02*
X98380165Y-56435559D01*
X98380165Y-56435559D02*
X98499213Y-56435559D01*
X98499213Y-56435559D02*
X98570641Y-56459369D01*
X98570641Y-56459369D02*
X98618260Y-56506988D01*
X98618260Y-56506988D02*
X98642070Y-56554607D01*
X98642070Y-56554607D02*
X98665879Y-56649845D01*
X98665879Y-56649845D02*
X98665879Y-56721273D01*
X98665879Y-56721273D02*
X98642070Y-56816511D01*
X98642070Y-56816511D02*
X98618260Y-56864130D01*
X98618260Y-56864130D02*
X98570641Y-56911750D01*
X98570641Y-56911750D02*
X98499213Y-56935559D01*
X98499213Y-56935559D02*
X98380165Y-56935559D01*
X98880165Y-56935559D02*
X98880165Y-56435559D01*
X98880165Y-56435559D02*
X99046832Y-56792702D01*
X99046832Y-56792702D02*
X99213498Y-56435559D01*
X99213498Y-56435559D02*
X99213498Y-56935559D01*
X99332547Y-56983178D02*
X99713499Y-56983178D01*
X99832546Y-56935559D02*
X99832546Y-56435559D01*
X99832546Y-56435559D02*
X100023022Y-56435559D01*
X100023022Y-56435559D02*
X100070641Y-56459369D01*
X100070641Y-56459369D02*
X100094451Y-56483178D01*
X100094451Y-56483178D02*
X100118260Y-56530797D01*
X100118260Y-56530797D02*
X100118260Y-56602226D01*
X100118260Y-56602226D02*
X100094451Y-56649845D01*
X100094451Y-56649845D02*
X100070641Y-56673654D01*
X100070641Y-56673654D02*
X100023022Y-56697464D01*
X100023022Y-56697464D02*
X99832546Y-56697464D01*
X100427784Y-56435559D02*
X100523022Y-56435559D01*
X100523022Y-56435559D02*
X100570641Y-56459369D01*
X100570641Y-56459369D02*
X100618260Y-56506988D01*
X100618260Y-56506988D02*
X100642070Y-56602226D01*
X100642070Y-56602226D02*
X100642070Y-56768892D01*
X100642070Y-56768892D02*
X100618260Y-56864130D01*
X100618260Y-56864130D02*
X100570641Y-56911750D01*
X100570641Y-56911750D02*
X100523022Y-56935559D01*
X100523022Y-56935559D02*
X100427784Y-56935559D01*
X100427784Y-56935559D02*
X100380165Y-56911750D01*
X100380165Y-56911750D02*
X100332546Y-56864130D01*
X100332546Y-56864130D02*
X100308737Y-56768892D01*
X100308737Y-56768892D02*
X100308737Y-56602226D01*
X100308737Y-56602226D02*
X100332546Y-56506988D01*
X100332546Y-56506988D02*
X100380165Y-56459369D01*
X100380165Y-56459369D02*
X100427784Y-56435559D01*
X101142070Y-56935559D02*
X100975404Y-56697464D01*
X100856356Y-56935559D02*
X100856356Y-56435559D01*
X100856356Y-56435559D02*
X101046832Y-56435559D01*
X101046832Y-56435559D02*
X101094451Y-56459369D01*
X101094451Y-56459369D02*
X101118261Y-56483178D01*
X101118261Y-56483178D02*
X101142070Y-56530797D01*
X101142070Y-56530797D02*
X101142070Y-56602226D01*
X101142070Y-56602226D02*
X101118261Y-56649845D01*
X101118261Y-56649845D02*
X101094451Y-56673654D01*
X101094451Y-56673654D02*
X101046832Y-56697464D01*
X101046832Y-56697464D02*
X100856356Y-56697464D01*
X101284928Y-56435559D02*
X101570642Y-56435559D01*
X101427785Y-56935559D02*
X101427785Y-56435559D01*
X101618261Y-56983178D02*
X101999213Y-56983178D01*
X102284927Y-56673654D02*
X102356355Y-56697464D01*
X102356355Y-56697464D02*
X102380165Y-56721273D01*
X102380165Y-56721273D02*
X102403974Y-56768892D01*
X102403974Y-56768892D02*
X102403974Y-56840321D01*
X102403974Y-56840321D02*
X102380165Y-56887940D01*
X102380165Y-56887940D02*
X102356355Y-56911750D01*
X102356355Y-56911750D02*
X102308736Y-56935559D01*
X102308736Y-56935559D02*
X102118260Y-56935559D01*
X102118260Y-56935559D02*
X102118260Y-56435559D01*
X102118260Y-56435559D02*
X102284927Y-56435559D01*
X102284927Y-56435559D02*
X102332546Y-56459369D01*
X102332546Y-56459369D02*
X102356355Y-56483178D01*
X102356355Y-56483178D02*
X102380165Y-56530797D01*
X102380165Y-56530797D02*
X102380165Y-56578416D01*
X102380165Y-56578416D02*
X102356355Y-56626035D01*
X102356355Y-56626035D02*
X102332546Y-56649845D01*
X102332546Y-56649845D02*
X102284927Y-56673654D01*
X102284927Y-56673654D02*
X102118260Y-56673654D01*
X102880165Y-56935559D02*
X102594451Y-56935559D01*
X102737308Y-56935559D02*
X102737308Y-56435559D01*
X102737308Y-56435559D02*
X102689689Y-56506988D01*
X102689689Y-56506988D02*
X102642070Y-56554607D01*
X102642070Y-56554607D02*
X102594451Y-56578416D01*
X102735559Y-70613736D02*
X102735559Y-70851831D01*
X102735559Y-70851831D02*
X102235559Y-70851831D01*
X102735559Y-70447069D02*
X102235559Y-70447069D01*
X102235559Y-70447069D02*
X102235559Y-70328021D01*
X102235559Y-70328021D02*
X102259369Y-70256593D01*
X102259369Y-70256593D02*
X102306988Y-70208974D01*
X102306988Y-70208974D02*
X102354607Y-70185164D01*
X102354607Y-70185164D02*
X102449845Y-70161355D01*
X102449845Y-70161355D02*
X102521273Y-70161355D01*
X102521273Y-70161355D02*
X102616511Y-70185164D01*
X102616511Y-70185164D02*
X102664130Y-70208974D01*
X102664130Y-70208974D02*
X102711750Y-70256593D01*
X102711750Y-70256593D02*
X102735559Y-70328021D01*
X102735559Y-70328021D02*
X102735559Y-70447069D01*
X102783178Y-70066117D02*
X102783178Y-69685164D01*
X102687940Y-69280403D02*
X102711750Y-69304212D01*
X102711750Y-69304212D02*
X102735559Y-69375641D01*
X102735559Y-69375641D02*
X102735559Y-69423260D01*
X102735559Y-69423260D02*
X102711750Y-69494688D01*
X102711750Y-69494688D02*
X102664130Y-69542307D01*
X102664130Y-69542307D02*
X102616511Y-69566117D01*
X102616511Y-69566117D02*
X102521273Y-69589926D01*
X102521273Y-69589926D02*
X102449845Y-69589926D01*
X102449845Y-69589926D02*
X102354607Y-69566117D01*
X102354607Y-69566117D02*
X102306988Y-69542307D01*
X102306988Y-69542307D02*
X102259369Y-69494688D01*
X102259369Y-69494688D02*
X102235559Y-69423260D01*
X102235559Y-69423260D02*
X102235559Y-69375641D01*
X102235559Y-69375641D02*
X102259369Y-69304212D01*
X102259369Y-69304212D02*
X102283178Y-69280403D01*
X102473654Y-69066117D02*
X102473654Y-68899450D01*
X102735559Y-68828022D02*
X102735559Y-69066117D01*
X102735559Y-69066117D02*
X102235559Y-69066117D01*
X102235559Y-69066117D02*
X102235559Y-68828022D01*
X102735559Y-68375641D02*
X102735559Y-68613736D01*
X102735559Y-68613736D02*
X102235559Y-68613736D01*
X102735559Y-67970879D02*
X102735559Y-68208974D01*
X102735559Y-68208974D02*
X102235559Y-68208974D01*
X102783178Y-67923260D02*
X102783178Y-67542307D01*
X102592702Y-67447069D02*
X102592702Y-67208974D01*
X102735559Y-67494688D02*
X102235559Y-67328022D01*
X102235559Y-67328022D02*
X102735559Y-67161355D01*
X102735559Y-66994689D02*
X102235559Y-66994689D01*
X102235559Y-66994689D02*
X102592702Y-66828022D01*
X102592702Y-66828022D02*
X102235559Y-66661356D01*
X102235559Y-66661356D02*
X102735559Y-66661356D01*
X102735559Y-66423260D02*
X102235559Y-66423260D01*
X102235559Y-66423260D02*
X102235559Y-66232784D01*
X102235559Y-66232784D02*
X102259369Y-66185165D01*
X102259369Y-66185165D02*
X102283178Y-66161355D01*
X102283178Y-66161355D02*
X102330797Y-66137546D01*
X102330797Y-66137546D02*
X102402226Y-66137546D01*
X102402226Y-66137546D02*
X102449845Y-66161355D01*
X102449845Y-66161355D02*
X102473654Y-66185165D01*
X102473654Y-66185165D02*
X102497464Y-66232784D01*
X102497464Y-66232784D02*
X102497464Y-66423260D01*
X102735559Y-65661355D02*
X102735559Y-65947069D01*
X102735559Y-65804212D02*
X102235559Y-65804212D01*
X102235559Y-65804212D02*
X102306988Y-65851831D01*
X102306988Y-65851831D02*
X102354607Y-65899450D01*
X102354607Y-65899450D02*
X102378416Y-65947069D01*
X107666667Y-66674250D02*
X107738095Y-66698059D01*
X107738095Y-66698059D02*
X107857143Y-66698059D01*
X107857143Y-66698059D02*
X107904762Y-66674250D01*
X107904762Y-66674250D02*
X107928571Y-66650440D01*
X107928571Y-66650440D02*
X107952381Y-66602821D01*
X107952381Y-66602821D02*
X107952381Y-66555202D01*
X107952381Y-66555202D02*
X107928571Y-66507583D01*
X107928571Y-66507583D02*
X107904762Y-66483773D01*
X107904762Y-66483773D02*
X107857143Y-66459964D01*
X107857143Y-66459964D02*
X107761905Y-66436154D01*
X107761905Y-66436154D02*
X107714286Y-66412345D01*
X107714286Y-66412345D02*
X107690476Y-66388535D01*
X107690476Y-66388535D02*
X107666667Y-66340916D01*
X107666667Y-66340916D02*
X107666667Y-66293297D01*
X107666667Y-66293297D02*
X107690476Y-66245678D01*
X107690476Y-66245678D02*
X107714286Y-66221869D01*
X107714286Y-66221869D02*
X107761905Y-66198059D01*
X107761905Y-66198059D02*
X107880952Y-66198059D01*
X107880952Y-66198059D02*
X107952381Y-66221869D01*
X108166666Y-66436154D02*
X108333333Y-66436154D01*
X108404761Y-66698059D02*
X108166666Y-66698059D01*
X108166666Y-66698059D02*
X108166666Y-66198059D01*
X108166666Y-66198059D02*
X108404761Y-66198059D01*
X108904761Y-66698059D02*
X108738095Y-66459964D01*
X108619047Y-66698059D02*
X108619047Y-66198059D01*
X108619047Y-66198059D02*
X108809523Y-66198059D01*
X108809523Y-66198059D02*
X108857142Y-66221869D01*
X108857142Y-66221869D02*
X108880952Y-66245678D01*
X108880952Y-66245678D02*
X108904761Y-66293297D01*
X108904761Y-66293297D02*
X108904761Y-66364726D01*
X108904761Y-66364726D02*
X108880952Y-66412345D01*
X108880952Y-66412345D02*
X108857142Y-66436154D01*
X108857142Y-66436154D02*
X108809523Y-66459964D01*
X108809523Y-66459964D02*
X108619047Y-66459964D01*
X109047619Y-66198059D02*
X109214285Y-66698059D01*
X109214285Y-66698059D02*
X109380952Y-66198059D01*
X109642856Y-66198059D02*
X109738094Y-66198059D01*
X109738094Y-66198059D02*
X109785713Y-66221869D01*
X109785713Y-66221869D02*
X109833332Y-66269488D01*
X109833332Y-66269488D02*
X109857142Y-66364726D01*
X109857142Y-66364726D02*
X109857142Y-66531392D01*
X109857142Y-66531392D02*
X109833332Y-66626630D01*
X109833332Y-66626630D02*
X109785713Y-66674250D01*
X109785713Y-66674250D02*
X109738094Y-66698059D01*
X109738094Y-66698059D02*
X109642856Y-66698059D01*
X109642856Y-66698059D02*
X109595237Y-66674250D01*
X109595237Y-66674250D02*
X109547618Y-66626630D01*
X109547618Y-66626630D02*
X109523809Y-66531392D01*
X109523809Y-66531392D02*
X109523809Y-66364726D01*
X109523809Y-66364726D02*
X109547618Y-66269488D01*
X109547618Y-66269488D02*
X109595237Y-66221869D01*
X109595237Y-66221869D02*
X109642856Y-66198059D01*
X110333333Y-66698059D02*
X110047619Y-66698059D01*
X110190476Y-66698059D02*
X110190476Y-66198059D01*
X110190476Y-66198059D02*
X110142857Y-66269488D01*
X110142857Y-66269488D02*
X110095238Y-66317107D01*
X110095238Y-66317107D02*
X110047619Y-66340916D01*
X97935559Y-68351831D02*
X97435559Y-68351831D01*
X97435559Y-68351831D02*
X97435559Y-68161355D01*
X97435559Y-68161355D02*
X97459369Y-68113736D01*
X97459369Y-68113736D02*
X97483178Y-68089926D01*
X97483178Y-68089926D02*
X97530797Y-68066117D01*
X97530797Y-68066117D02*
X97602226Y-68066117D01*
X97602226Y-68066117D02*
X97649845Y-68089926D01*
X97649845Y-68089926D02*
X97673654Y-68113736D01*
X97673654Y-68113736D02*
X97697464Y-68161355D01*
X97697464Y-68161355D02*
X97697464Y-68351831D01*
X97935559Y-67566117D02*
X97697464Y-67732783D01*
X97935559Y-67851831D02*
X97435559Y-67851831D01*
X97435559Y-67851831D02*
X97435559Y-67661355D01*
X97435559Y-67661355D02*
X97459369Y-67613736D01*
X97459369Y-67613736D02*
X97483178Y-67589926D01*
X97483178Y-67589926D02*
X97530797Y-67566117D01*
X97530797Y-67566117D02*
X97602226Y-67566117D01*
X97602226Y-67566117D02*
X97649845Y-67589926D01*
X97649845Y-67589926D02*
X97673654Y-67613736D01*
X97673654Y-67613736D02*
X97697464Y-67661355D01*
X97697464Y-67661355D02*
X97697464Y-67851831D01*
X97435559Y-67256593D02*
X97435559Y-67161355D01*
X97435559Y-67161355D02*
X97459369Y-67113736D01*
X97459369Y-67113736D02*
X97506988Y-67066117D01*
X97506988Y-67066117D02*
X97602226Y-67042307D01*
X97602226Y-67042307D02*
X97768892Y-67042307D01*
X97768892Y-67042307D02*
X97864130Y-67066117D01*
X97864130Y-67066117D02*
X97911750Y-67113736D01*
X97911750Y-67113736D02*
X97935559Y-67161355D01*
X97935559Y-67161355D02*
X97935559Y-67256593D01*
X97935559Y-67256593D02*
X97911750Y-67304212D01*
X97911750Y-67304212D02*
X97864130Y-67351831D01*
X97864130Y-67351831D02*
X97768892Y-67375640D01*
X97768892Y-67375640D02*
X97602226Y-67375640D01*
X97602226Y-67375640D02*
X97506988Y-67351831D01*
X97506988Y-67351831D02*
X97459369Y-67304212D01*
X97459369Y-67304212D02*
X97435559Y-67256593D01*
X97435559Y-66875640D02*
X97935559Y-66542307D01*
X97435559Y-66542307D02*
X97935559Y-66875640D01*
X97697464Y-66256593D02*
X97935559Y-66256593D01*
X97435559Y-66423259D02*
X97697464Y-66256593D01*
X97697464Y-66256593D02*
X97435559Y-66089926D01*
X97935559Y-65661355D02*
X97935559Y-65947069D01*
X97935559Y-65804212D02*
X97435559Y-65804212D01*
X97435559Y-65804212D02*
X97506988Y-65851831D01*
X97506988Y-65851831D02*
X97554607Y-65899450D01*
X97554607Y-65899450D02*
X97578416Y-65947069D01*
D11*
%TO.C,DM_PORT_A1*%
X98670000Y-64980000D02*
X98670000Y-63650000D01*
X100000000Y-64980000D02*
X98670000Y-64980000D01*
X101270000Y-62320000D02*
X108950000Y-62320000D01*
X101270000Y-64980000D02*
X101270000Y-62320000D01*
X101270000Y-64980000D02*
X108950000Y-64980000D01*
X108950000Y-64980000D02*
X108950000Y-62320000D01*
%TO.C,DM_PORT_B1*%
X98670000Y-60330000D02*
X98670000Y-59000000D01*
X100000000Y-60330000D02*
X98670000Y-60330000D01*
X101270000Y-57670000D02*
X108950000Y-57670000D01*
X101270000Y-60330000D02*
X101270000Y-57670000D01*
X101270000Y-60330000D02*
X108950000Y-60330000D01*
X108950000Y-60330000D02*
X108950000Y-57670000D01*
%TO.C,LD_CELL_AMP1*%
X103470000Y-66195000D02*
X104800000Y-66195000D01*
X103470000Y-67525000D02*
X103470000Y-66195000D01*
X103470000Y-68795000D02*
X103470000Y-76475000D01*
X103470000Y-68795000D02*
X106130000Y-68795000D01*
X103470000Y-76475000D02*
X106130000Y-76475000D01*
X106130000Y-68795000D02*
X106130000Y-76475000D01*
%TO.C,SERVO1*%
X107670000Y-67470000D02*
X109000000Y-67470000D01*
X107670000Y-68800000D02*
X107670000Y-67470000D01*
X107670000Y-70070000D02*
X107670000Y-75210000D01*
X107670000Y-70070000D02*
X110330000Y-70070000D01*
X107670000Y-75210000D02*
X110330000Y-75210000D01*
X110330000Y-70070000D02*
X110330000Y-75210000D01*
%TO.C,PROXY1*%
X98670000Y-66195000D02*
X100000000Y-66195000D01*
X98670000Y-67525000D02*
X98670000Y-66195000D01*
X98670000Y-68795000D02*
X98670000Y-76475000D01*
X98670000Y-68795000D02*
X101330000Y-68795000D01*
X98670000Y-76475000D02*
X101330000Y-76475000D01*
X101330000Y-68795000D02*
X101330000Y-76475000D01*
%TD*%
M02*
