%TF.GenerationSoftware,KiCad,Pcbnew,9.0.0*%
%TF.CreationDate,2025-03-21T22:47:36-04:00*%
%TF.ProjectId,PawPlans,50617750-6c61-46e7-932e-6b696361645f,0.5.0*%
%TF.SameCoordinates,Original*%
%TF.FileFunction,Other,User*%
%FSLAX46Y46*%
G04 Gerber Fmt 4.6, Leading zero omitted, Abs format (unit mm)*
G04 Created by KiCad (PCBNEW 9.0.0) date 2025-03-21 22:47:36*
%MOMM*%
%LPD*%
G01*
G04 APERTURE LIST*
%ADD10C,0.050000*%
G04 APERTURE END LIST*
D10*
%TO.C,DM_PORT_B1*%
X109400000Y-57200000D02*
X98200000Y-57200000D01*
X98200000Y-57200000D02*
X98200000Y-60800000D01*
X109400000Y-60800000D02*
X109400000Y-57200000D01*
X98200000Y-60800000D02*
X109400000Y-60800000D01*
%TO.C,DM_PORT_A1*%
X109400000Y-61850000D02*
X98200000Y-61850000D01*
X98200000Y-61850000D02*
X98200000Y-65450000D01*
X109400000Y-65450000D02*
X109400000Y-61850000D01*
X98200000Y-65450000D02*
X109400000Y-65450000D01*
%TO.C,PROXY1*%
X101800000Y-76925000D02*
X101800000Y-65725000D01*
X101800000Y-65725000D02*
X98200000Y-65725000D01*
X98200000Y-76925000D02*
X101800000Y-76925000D01*
X98200000Y-65725000D02*
X98200000Y-76925000D01*
%TO.C,LD_CELL_AMP1*%
X106600000Y-76925000D02*
X106600000Y-65725000D01*
X106600000Y-65725000D02*
X103000000Y-65725000D01*
X103000000Y-76925000D02*
X106600000Y-76925000D01*
X103000000Y-65725000D02*
X103000000Y-76925000D01*
%TO.C,SERVO1*%
X110800000Y-75650000D02*
X110800000Y-67000000D01*
X110800000Y-67000000D02*
X107200000Y-67000000D01*
X107200000Y-75650000D02*
X110800000Y-75650000D01*
X107200000Y-67000000D02*
X107200000Y-75650000D01*
%TD*%
M02*
