%TF.GenerationSoftware,KiCad,Pcbnew,9.0.0*%
%TF.CreationDate,2025-03-14T09:11:00-04:00*%
%TF.ProjectId,PawPlans,50617750-6c61-46e7-932e-6b696361645f,0.5.0*%
%TF.SameCoordinates,Original*%
%TF.FileFunction,Copper,L1,Top*%
%TF.FilePolarity,Positive*%
%FSLAX46Y46*%
G04 Gerber Fmt 4.6, Leading zero omitted, Abs format (unit mm)*
G04 Created by KiCad (PCBNEW 9.0.0) date 2025-03-14 09:11:00*
%MOMM*%
%LPD*%
G01*
G04 APERTURE LIST*
%TA.AperFunction,SMDPad,CuDef*%
%ADD10R,1.854200X3.403600*%
%TD*%
%TA.AperFunction,ComponentPad*%
%ADD11R,2.000000X1.200000*%
%TD*%
%TA.AperFunction,ComponentPad*%
%ADD12O,2.000000X1.200000*%
%TD*%
%TA.AperFunction,ComponentPad*%
%ADD13O,3.048000X1.524000*%
%TD*%
%TA.AperFunction,ComponentPad*%
%ADD14C,1.778000*%
%TD*%
%TA.AperFunction,ComponentPad*%
%ADD15R,1.778000X1.778000*%
%TD*%
%TA.AperFunction,ComponentPad*%
%ADD16C,1.879600*%
%TD*%
%TA.AperFunction,ComponentPad*%
%ADD17R,1.350000X1.350000*%
%TD*%
%TA.AperFunction,ComponentPad*%
%ADD18O,1.350000X1.350000*%
%TD*%
%TA.AperFunction,Conductor*%
%ADD19C,0.200000*%
%TD*%
G04 APERTURE END LIST*
D10*
%TO.P,BUZZER1,1,1*%
%TO.N,/BZRSIG*%
X110377300Y-36800000D03*
%TO.P,BUZZER1,2,2*%
%TO.N,/GND*%
X118022700Y-36800000D03*
%TD*%
D11*
%TO.P,MCUKIT1,1,3V3*%
%TO.N,/3V3*%
X88170000Y-43823460D03*
D12*
%TO.P,MCUKIT1,2,EN/RESET*%
%TO.N,unconnected-(MCUKIT1-EN{slash}RESET-Pad2)*%
X88170000Y-46363460D03*
%TO.P,MCUKIT1,3,GPIO4/MTMS*%
%TO.N,unconnected-(MCUKIT1-GPIO4{slash}MTMS-Pad3)*%
X88170000Y-48903460D03*
%TO.P,MCUKIT1,4,GPIO5/MTDI*%
%TO.N,/DSPSDA*%
X88170000Y-51443460D03*
%TO.P,MCUKIT1,5,GPIO6*%
%TO.N,/DSPSCL*%
X88170000Y-53983460D03*
%TO.P,MCUKIT1,6,GPIO7*%
%TO.N,/PRXECH*%
X88170000Y-56523460D03*
%TO.P,MCUKIT1,7,GPIO0*%
%TO.N,/PRXTRG*%
X88170000Y-59063460D03*
%TO.P,MCUKIT1,8,GPIO1*%
%TO.N,unconnected-(MCUKIT1-GPIO1-Pad8)*%
X88170000Y-61603460D03*
%TO.P,MCUKIT1,9,GPIO8/BOOT*%
%TO.N,unconnected-(MCUKIT1-GPIO8{slash}BOOT-Pad9)*%
X88170000Y-64143460D03*
%TO.P,MCUKIT1,10,GPIO10*%
%TO.N,unconnected-(MCUKIT1-GPIO10-Pad10)*%
X88170000Y-66683460D03*
%TO.P,MCUKIT1,11,GPIO11*%
%TO.N,unconnected-(MCUKIT1-GPIO11-Pad11)*%
X88170000Y-69223460D03*
%TO.P,MCUKIT1,12,GPIO2*%
%TO.N,unconnected-(MCUKIT1-GPIO2-Pad12)*%
X88170000Y-71763460D03*
%TO.P,MCUKIT1,13,GPIO3*%
%TO.N,unconnected-(MCUKIT1-GPIO3-Pad13)*%
X88170000Y-74303460D03*
%TO.P,MCUKIT1,14,5V*%
%TO.N,/VCC*%
X88170000Y-76843460D03*
%TO.P,MCUKIT1,15,GND*%
%TO.N,/GND*%
X88170000Y-79383460D03*
%TO.P,MCUKIT1,16,NC*%
%TO.N,unconnected-(MCUKIT1-NC-Pad16)*%
X88170000Y-81923460D03*
%TO.P,MCUKIT1,17,NC*%
%TO.N,unconnected-(MCUKIT1-NC-Pad17)*%
X111030000Y-81923460D03*
%TO.P,MCUKIT1,18,GND*%
%TO.N,/GND*%
X111030000Y-79383460D03*
%TO.P,MCUKIT1,19,GPIO12/USB_D-*%
%TO.N,/LDCCLK*%
X111030000Y-76843460D03*
%TO.P,MCUKIT1,20,GPIO13/USB_D+*%
%TO.N,/LDCDAT*%
X111030000Y-74303460D03*
%TO.P,MCUKIT1,21,GND*%
%TO.N,/GND*%
X111030000Y-71763460D03*
%TO.P,MCUKIT1,22,GPIO9/BOOT*%
%TO.N,/SRVPWM*%
X111030000Y-69223460D03*
%TO.P,MCUKIT1,23,GPIO18*%
%TO.N,unconnected-(MCUKIT1-GPIO18-Pad23)*%
X111030000Y-66683460D03*
%TO.P,MCUKIT1,24,GPIO19*%
%TO.N,unconnected-(MCUKIT1-GPIO19-Pad24)*%
X111030000Y-64143460D03*
%TO.P,MCUKIT1,25,GPIO20*%
%TO.N,unconnected-(MCUKIT1-GPIO20-Pad25)*%
X111030000Y-61603460D03*
%TO.P,MCUKIT1,26,GPIO21*%
%TO.N,unconnected-(MCUKIT1-GPIO21-Pad26)*%
X111030000Y-59063460D03*
%TO.P,MCUKIT1,27,GPIO22*%
%TO.N,unconnected-(MCUKIT1-GPIO22-Pad27)*%
X111030000Y-56523460D03*
%TO.P,MCUKIT1,28,GPIO23*%
%TO.N,/BZRSIG*%
X111030000Y-53983460D03*
%TO.P,MCUKIT1,29,GPIO15/JTAG*%
%TO.N,/JOYSEL*%
X111030000Y-51443460D03*
%TO.P,MCUKIT1,30,GPIO17/U0RXD*%
%TO.N,/JOYY*%
X111030000Y-48903460D03*
%TO.P,MCUKIT1,31,GPIO16/U0TXD*%
%TO.N,/JOYX*%
X111030000Y-46363460D03*
%TO.P,MCUKIT1,32,GND*%
%TO.N,/GND*%
X111030000Y-43823460D03*
%TD*%
D13*
%TO.P,JOYSTICK1,1,VCC*%
%TO.N,/3V3*%
X115800000Y-45840000D03*
%TO.P,JOYSTICK1,2,2*%
%TO.N,/JOYX*%
X115800000Y-48380000D03*
%TO.P,JOYSTICK1,3,3*%
%TO.N,/JOYY*%
X115800000Y-50920000D03*
%TO.P,JOYSTICK1,4,4*%
%TO.N,/JOYSEL*%
X115800000Y-53460000D03*
%TO.P,JOYSTICK1,5,5*%
%TO.N,/GND*%
X115800000Y-56000000D03*
%TD*%
D14*
%TO.P,PROXIMITY1,ECHO,ECHO*%
%TO.N,/PRXECH*%
X88000000Y-37860000D03*
D15*
%TO.P,PROXIMITY1,GND,GND*%
%TO.N,/GND*%
X88000000Y-40400000D03*
D14*
%TO.P,PROXIMITY1,TRIG,TRIG*%
%TO.N,/PRXTRG*%
X88000000Y-35320000D03*
%TO.P,PROXIMITY1,VCC,5V*%
%TO.N,/VCC*%
X88000000Y-32780000D03*
%TD*%
D16*
%TO.P,DISPLAY1,1,GND*%
%TO.N,/GND*%
X115800000Y-67014133D03*
%TO.P,DISPLAY1,2,VCC*%
%TO.N,/3V3*%
X115800000Y-64474133D03*
%TO.P,DISPLAY1,3,SDA*%
%TO.N,/DSPSDA*%
X115800000Y-61934133D03*
%TO.P,DISPLAY1,4,SCL*%
%TO.N,/DSPSCL*%
X115800000Y-59394133D03*
%TD*%
D17*
%TO.P,SERVO1,1,PWM*%
%TO.N,/SRVPWM*%
X115800000Y-70600000D03*
D18*
%TO.P,SERVO1,2,+*%
%TO.N,/VCC*%
X115800000Y-72600000D03*
%TO.P,SERVO1,3,-*%
%TO.N,/GND*%
X115800000Y-74600000D03*
%TD*%
D16*
%TO.P,LOADCELL1,5,5*%
%TO.N,/GND*%
X115800000Y-78200000D03*
%TO.P,LOADCELL1,2,2*%
%TO.N,/VCC*%
X115800000Y-85820000D03*
%TO.P,LOADCELL1,3,3*%
%TO.N,/LDCDAT*%
X115800000Y-83280000D03*
%TO.P,LOADCELL1,4,4*%
%TO.N,/LDCCLK*%
X115800000Y-80740000D03*
%TO.P,LOADCELL1,1,1*%
%TO.N,/3V3*%
X115800000Y-88360000D03*
%TD*%
D19*
%TO.N,/GND*%
X119000000Y-42200000D02*
X117376540Y-43823460D01*
X117376540Y-43823460D02*
X111030000Y-43823460D01*
X118847600Y-37624900D02*
X119000000Y-37777300D01*
X119000000Y-37777300D02*
X119000000Y-42200000D01*
%TO.N,/JOYY*%
X113103460Y-48903460D02*
X115120000Y-50920000D01*
X115120000Y-50920000D02*
X115800000Y-50920000D01*
X111030000Y-48903460D02*
X113103460Y-48903460D01*
%TO.N,/JOYX*%
X114980000Y-48380000D02*
X115800000Y-48380000D01*
X112963460Y-46363460D02*
X114980000Y-48380000D01*
X111030000Y-46363460D02*
X112963460Y-46363460D01*
%TO.N,/BZRSIG*%
X109200000Y-37977300D02*
X109200000Y-52153460D01*
X109200000Y-52153460D02*
X111030000Y-53983460D01*
X110377300Y-36800000D02*
X109200000Y-37977300D01*
%TO.N,/DSPSDA*%
X114265867Y-60400000D02*
X115800000Y-61934133D01*
X97126540Y-60400000D02*
X114265867Y-60400000D01*
X88170000Y-51443460D02*
X97126540Y-60400000D01*
%TO.N,/VCC*%
X117400000Y-74200000D02*
X117400000Y-84220000D01*
X115800000Y-72600000D02*
X117400000Y-74200000D01*
X117400000Y-84220000D02*
X115800000Y-85820000D01*
X92013460Y-73000000D02*
X115400000Y-73000000D01*
X88170000Y-76843460D02*
X92013460Y-73000000D01*
%TO.N,/PRXECH*%
X86600000Y-39260000D02*
X86600000Y-54953460D01*
X86600000Y-54953460D02*
X88170000Y-56523460D01*
X88000000Y-37860000D02*
X86600000Y-39260000D01*
%TO.N,/VCC*%
X86200000Y-74873460D02*
X88170000Y-76843460D01*
X86200000Y-34580000D02*
X86200000Y-74873460D01*
X88000000Y-32780000D02*
X86200000Y-34580000D01*
%TO.N,/SRVPWM*%
X112406540Y-70600000D02*
X111030000Y-69223460D01*
X115800000Y-70600000D02*
X112406540Y-70600000D01*
%TO.N,/JOYSEL*%
X113243460Y-51443460D02*
X115260000Y-53460000D01*
X111030000Y-51443460D02*
X113243460Y-51443460D01*
X115260000Y-53460000D02*
X115800000Y-53460000D01*
%TO.N,/LDCCLK*%
X115800000Y-80740000D02*
X111903460Y-76843460D01*
%TD*%
%TA.AperFunction,Conductor*%
%TO.N,/3V3*%
G36*
X119615539Y-30747185D02*
G01*
X119661294Y-30799989D01*
X119672500Y-30851500D01*
X119672500Y-94948500D01*
X119652815Y-95015539D01*
X119600011Y-95061294D01*
X119548500Y-95072500D01*
X85651500Y-95072500D01*
X85584461Y-95052815D01*
X85538706Y-95000011D01*
X85527500Y-94948500D01*
X85527500Y-81844613D01*
X86969500Y-81844613D01*
X86969500Y-82002306D01*
X87000261Y-82156949D01*
X87000264Y-82156961D01*
X87060602Y-82302632D01*
X87060609Y-82302645D01*
X87148210Y-82433748D01*
X87148213Y-82433752D01*
X87259707Y-82545246D01*
X87259711Y-82545249D01*
X87390814Y-82632850D01*
X87390827Y-82632857D01*
X87510311Y-82682348D01*
X87536503Y-82693197D01*
X87691153Y-82723959D01*
X87691156Y-82723960D01*
X87691158Y-82723960D01*
X88648844Y-82723960D01*
X88648845Y-82723959D01*
X88803497Y-82693197D01*
X88949179Y-82632854D01*
X89080289Y-82545249D01*
X89191789Y-82433749D01*
X89279394Y-82302639D01*
X89339737Y-82156957D01*
X89370500Y-82002302D01*
X89370500Y-81844618D01*
X89370500Y-81844615D01*
X89370499Y-81844613D01*
X109829500Y-81844613D01*
X109829500Y-82002306D01*
X109860261Y-82156949D01*
X109860264Y-82156961D01*
X109920602Y-82302632D01*
X109920609Y-82302645D01*
X110008210Y-82433748D01*
X110008213Y-82433752D01*
X110119707Y-82545246D01*
X110119711Y-82545249D01*
X110250814Y-82632850D01*
X110250827Y-82632857D01*
X110370311Y-82682348D01*
X110396503Y-82693197D01*
X110551153Y-82723959D01*
X110551156Y-82723960D01*
X110551158Y-82723960D01*
X111508844Y-82723960D01*
X111508845Y-82723959D01*
X111663497Y-82693197D01*
X111809179Y-82632854D01*
X111940289Y-82545249D01*
X112051789Y-82433749D01*
X112139394Y-82302639D01*
X112199737Y-82156957D01*
X112230500Y-82002302D01*
X112230500Y-81844618D01*
X112230500Y-81844615D01*
X112230499Y-81844613D01*
X112204771Y-81715272D01*
X112199737Y-81689963D01*
X112166523Y-81609777D01*
X112139397Y-81544287D01*
X112139390Y-81544274D01*
X112051789Y-81413171D01*
X112051786Y-81413167D01*
X111940292Y-81301673D01*
X111940288Y-81301670D01*
X111809185Y-81214069D01*
X111809172Y-81214062D01*
X111663501Y-81153724D01*
X111663489Y-81153721D01*
X111508845Y-81122960D01*
X111508842Y-81122960D01*
X110551158Y-81122960D01*
X110551155Y-81122960D01*
X110396510Y-81153721D01*
X110396498Y-81153724D01*
X110250827Y-81214062D01*
X110250814Y-81214069D01*
X110119711Y-81301670D01*
X110119707Y-81301673D01*
X110008213Y-81413167D01*
X110008210Y-81413171D01*
X109920609Y-81544274D01*
X109920602Y-81544287D01*
X109860264Y-81689958D01*
X109860261Y-81689970D01*
X109829500Y-81844613D01*
X89370499Y-81844613D01*
X89344771Y-81715272D01*
X89339737Y-81689963D01*
X89306523Y-81609777D01*
X89279397Y-81544287D01*
X89279390Y-81544274D01*
X89191789Y-81413171D01*
X89191786Y-81413167D01*
X89080292Y-81301673D01*
X89080288Y-81301670D01*
X88949185Y-81214069D01*
X88949172Y-81214062D01*
X88803501Y-81153724D01*
X88803489Y-81153721D01*
X88648845Y-81122960D01*
X88648842Y-81122960D01*
X87691158Y-81122960D01*
X87691155Y-81122960D01*
X87536510Y-81153721D01*
X87536498Y-81153724D01*
X87390827Y-81214062D01*
X87390814Y-81214069D01*
X87259711Y-81301670D01*
X87259707Y-81301673D01*
X87148213Y-81413167D01*
X87148210Y-81413171D01*
X87060609Y-81544274D01*
X87060602Y-81544287D01*
X87000264Y-81689958D01*
X87000261Y-81689970D01*
X86969500Y-81844613D01*
X85527500Y-81844613D01*
X85527500Y-79304613D01*
X86969500Y-79304613D01*
X86969500Y-79462306D01*
X87000261Y-79616949D01*
X87000264Y-79616961D01*
X87060602Y-79762632D01*
X87060609Y-79762645D01*
X87148210Y-79893748D01*
X87148213Y-79893752D01*
X87259707Y-80005246D01*
X87259711Y-80005249D01*
X87390814Y-80092850D01*
X87390827Y-80092857D01*
X87510311Y-80142348D01*
X87536503Y-80153197D01*
X87691153Y-80183959D01*
X87691156Y-80183960D01*
X87691158Y-80183960D01*
X88648844Y-80183960D01*
X88648845Y-80183959D01*
X88803497Y-80153197D01*
X88949179Y-80092854D01*
X89080289Y-80005249D01*
X89191789Y-79893749D01*
X89279394Y-79762639D01*
X89339737Y-79616957D01*
X89370500Y-79462302D01*
X89370500Y-79304618D01*
X89370500Y-79304615D01*
X89370499Y-79304613D01*
X109829500Y-79304613D01*
X109829500Y-79462306D01*
X109860261Y-79616949D01*
X109860264Y-79616961D01*
X109920602Y-79762632D01*
X109920609Y-79762645D01*
X110008210Y-79893748D01*
X110008213Y-79893752D01*
X110119707Y-80005246D01*
X110119711Y-80005249D01*
X110250814Y-80092850D01*
X110250827Y-80092857D01*
X110370311Y-80142348D01*
X110396503Y-80153197D01*
X110551153Y-80183959D01*
X110551156Y-80183960D01*
X110551158Y-80183960D01*
X111508844Y-80183960D01*
X111508845Y-80183959D01*
X111663497Y-80153197D01*
X111809179Y-80092854D01*
X111940289Y-80005249D01*
X112051789Y-79893749D01*
X112139394Y-79762639D01*
X112199737Y-79616957D01*
X112230500Y-79462302D01*
X112230500Y-79304618D01*
X112230500Y-79304615D01*
X112230499Y-79304613D01*
X112204771Y-79175272D01*
X112199737Y-79149963D01*
X112166523Y-79069777D01*
X112139397Y-79004287D01*
X112139390Y-79004274D01*
X112051789Y-78873171D01*
X112051786Y-78873167D01*
X111940292Y-78761673D01*
X111940288Y-78761670D01*
X111809185Y-78674069D01*
X111809172Y-78674062D01*
X111663501Y-78613724D01*
X111663489Y-78613721D01*
X111508845Y-78582960D01*
X111508842Y-78582960D01*
X110551158Y-78582960D01*
X110551155Y-78582960D01*
X110396510Y-78613721D01*
X110396498Y-78613724D01*
X110250827Y-78674062D01*
X110250814Y-78674069D01*
X110119711Y-78761670D01*
X110119707Y-78761673D01*
X110008213Y-78873167D01*
X110008210Y-78873171D01*
X109920609Y-79004274D01*
X109920602Y-79004287D01*
X109860264Y-79149958D01*
X109860261Y-79149970D01*
X109829500Y-79304613D01*
X89370499Y-79304613D01*
X89344771Y-79175272D01*
X89339737Y-79149963D01*
X89306523Y-79069777D01*
X89279397Y-79004287D01*
X89279390Y-79004274D01*
X89191789Y-78873171D01*
X89191786Y-78873167D01*
X89080292Y-78761673D01*
X89080288Y-78761670D01*
X88949185Y-78674069D01*
X88949172Y-78674062D01*
X88803501Y-78613724D01*
X88803489Y-78613721D01*
X88648845Y-78582960D01*
X88648842Y-78582960D01*
X87691158Y-78582960D01*
X87691155Y-78582960D01*
X87536510Y-78613721D01*
X87536498Y-78613724D01*
X87390827Y-78674062D01*
X87390814Y-78674069D01*
X87259711Y-78761670D01*
X87259707Y-78761673D01*
X87148213Y-78873167D01*
X87148210Y-78873171D01*
X87060609Y-79004274D01*
X87060602Y-79004287D01*
X87000264Y-79149958D01*
X87000261Y-79149970D01*
X86969500Y-79304613D01*
X85527500Y-79304613D01*
X85527500Y-34540438D01*
X85899500Y-34540438D01*
X85899500Y-74913022D01*
X85913152Y-74963973D01*
X85919979Y-74989450D01*
X85919982Y-74989455D01*
X85959535Y-75057964D01*
X85959541Y-75057972D01*
X87110911Y-76209342D01*
X87144396Y-76270665D01*
X87139412Y-76340357D01*
X87126332Y-76365914D01*
X87060609Y-76464274D01*
X87060602Y-76464287D01*
X87000264Y-76609958D01*
X87000261Y-76609970D01*
X86969500Y-76764613D01*
X86969500Y-76922306D01*
X87000261Y-77076949D01*
X87000264Y-77076961D01*
X87060602Y-77222632D01*
X87060609Y-77222645D01*
X87148210Y-77353748D01*
X87148213Y-77353752D01*
X87259707Y-77465246D01*
X87259711Y-77465249D01*
X87390814Y-77552850D01*
X87390827Y-77552857D01*
X87510311Y-77602348D01*
X87536503Y-77613197D01*
X87691153Y-77643959D01*
X87691156Y-77643960D01*
X87691158Y-77643960D01*
X88648844Y-77643960D01*
X88648845Y-77643959D01*
X88803497Y-77613197D01*
X88949179Y-77552854D01*
X89080289Y-77465249D01*
X89191789Y-77353749D01*
X89279394Y-77222639D01*
X89339737Y-77076957D01*
X89370500Y-76922302D01*
X89370500Y-76764618D01*
X89370500Y-76764615D01*
X89370499Y-76764613D01*
X89365760Y-76740789D01*
X89339737Y-76609963D01*
X89339735Y-76609958D01*
X89279397Y-76464287D01*
X89279390Y-76464274D01*
X89213667Y-76365913D01*
X89192789Y-76299236D01*
X89211273Y-76231855D01*
X89229084Y-76209345D01*
X92101612Y-73336819D01*
X92162935Y-73303334D01*
X92189293Y-73300500D01*
X110336163Y-73300500D01*
X110403202Y-73320185D01*
X110448957Y-73372989D01*
X110458901Y-73442147D01*
X110429876Y-73505703D01*
X110383615Y-73539061D01*
X110250827Y-73594062D01*
X110250814Y-73594069D01*
X110119711Y-73681670D01*
X110119707Y-73681673D01*
X110008213Y-73793167D01*
X110008210Y-73793171D01*
X109920609Y-73924274D01*
X109920602Y-73924287D01*
X109860264Y-74069958D01*
X109860261Y-74069970D01*
X109829500Y-74224613D01*
X109829500Y-74382306D01*
X109860261Y-74536949D01*
X109860264Y-74536961D01*
X109920602Y-74682632D01*
X109920609Y-74682645D01*
X110008210Y-74813748D01*
X110008213Y-74813752D01*
X110119707Y-74925246D01*
X110119711Y-74925249D01*
X110250814Y-75012850D01*
X110250827Y-75012857D01*
X110359746Y-75057972D01*
X110396503Y-75073197D01*
X110551153Y-75103959D01*
X110551156Y-75103960D01*
X110551158Y-75103960D01*
X111508844Y-75103960D01*
X111508845Y-75103959D01*
X111663497Y-75073197D01*
X111809179Y-75012854D01*
X111940289Y-74925249D01*
X112051789Y-74813749D01*
X112139394Y-74682639D01*
X112199737Y-74536957D01*
X112230500Y-74382302D01*
X112230500Y-74224618D01*
X112230500Y-74224615D01*
X112230499Y-74224613D01*
X112217734Y-74160438D01*
X112199737Y-74069963D01*
X112199735Y-74069958D01*
X112139397Y-73924287D01*
X112139390Y-73924274D01*
X112051789Y-73793171D01*
X112051786Y-73793167D01*
X111940292Y-73681673D01*
X111940288Y-73681670D01*
X111809185Y-73594069D01*
X111809172Y-73594062D01*
X111676385Y-73539061D01*
X111621981Y-73495220D01*
X111599916Y-73428926D01*
X111617195Y-73361227D01*
X111668332Y-73313616D01*
X111723837Y-73300500D01*
X115234899Y-73300500D01*
X115301938Y-73320185D01*
X115303790Y-73321398D01*
X115385295Y-73375858D01*
X115385297Y-73375859D01*
X115385301Y-73375861D01*
X115544621Y-73441853D01*
X115544626Y-73441855D01*
X115713766Y-73475499D01*
X115713769Y-73475500D01*
X115713771Y-73475500D01*
X115886231Y-73475500D01*
X115886232Y-73475499D01*
X116055374Y-73441855D01*
X116093030Y-73426257D01*
X116162499Y-73418787D01*
X116224978Y-73450061D01*
X116228165Y-73453136D01*
X116483116Y-73708087D01*
X116516601Y-73769410D01*
X116511617Y-73839102D01*
X116469745Y-73895035D01*
X116404281Y-73919452D01*
X116336008Y-73904600D01*
X116326544Y-73898870D01*
X116214711Y-73824145D01*
X116214698Y-73824138D01*
X116055378Y-73758146D01*
X116055366Y-73758143D01*
X115886232Y-73724500D01*
X115886229Y-73724500D01*
X115713771Y-73724500D01*
X115713768Y-73724500D01*
X115544633Y-73758143D01*
X115544621Y-73758146D01*
X115385301Y-73824138D01*
X115385288Y-73824145D01*
X115241901Y-73919954D01*
X115241897Y-73919957D01*
X115119957Y-74041897D01*
X115119954Y-74041901D01*
X115024145Y-74185288D01*
X115024138Y-74185301D01*
X114958146Y-74344621D01*
X114958143Y-74344633D01*
X114924500Y-74513766D01*
X114924500Y-74686233D01*
X114958143Y-74855366D01*
X114958146Y-74855378D01*
X115024138Y-75014698D01*
X115024145Y-75014711D01*
X115119954Y-75158098D01*
X115119957Y-75158102D01*
X115241897Y-75280042D01*
X115241901Y-75280045D01*
X115385288Y-75375854D01*
X115385301Y-75375861D01*
X115544621Y-75441853D01*
X115544626Y-75441855D01*
X115713766Y-75475499D01*
X115713769Y-75475500D01*
X115713771Y-75475500D01*
X115886231Y-75475500D01*
X115886232Y-75475499D01*
X116055374Y-75441855D01*
X116214705Y-75375858D01*
X116358099Y-75280045D01*
X116480045Y-75158099D01*
X116575858Y-75014705D01*
X116576624Y-75012857D01*
X116641853Y-74855378D01*
X116641855Y-74855374D01*
X116675500Y-74686229D01*
X116675500Y-74513771D01*
X116675500Y-74513768D01*
X116675499Y-74513766D01*
X116649350Y-74382306D01*
X116641855Y-74344626D01*
X116618463Y-74288152D01*
X116575861Y-74185301D01*
X116575854Y-74185288D01*
X116501129Y-74073455D01*
X116480251Y-74006778D01*
X116498735Y-73939398D01*
X116550714Y-73892707D01*
X116619684Y-73881531D01*
X116683748Y-73909416D01*
X116691912Y-73916883D01*
X117063181Y-74288152D01*
X117096666Y-74349475D01*
X117099500Y-74375833D01*
X117099500Y-77726459D01*
X117079815Y-77793498D01*
X117027011Y-77839253D01*
X116957853Y-77849197D01*
X116894297Y-77820172D01*
X116858831Y-77766681D01*
X116858618Y-77766770D01*
X116858164Y-77765675D01*
X116857569Y-77764777D01*
X116856757Y-77762277D01*
X116775272Y-77602353D01*
X116775270Y-77602350D01*
X116775269Y-77602348D01*
X116669777Y-77457150D01*
X116669773Y-77457145D01*
X116542854Y-77330226D01*
X116542849Y-77330222D01*
X116397651Y-77224730D01*
X116237725Y-77143244D01*
X116237724Y-77143243D01*
X116237723Y-77143243D01*
X116067021Y-77087778D01*
X116067019Y-77087777D01*
X116067018Y-77087777D01*
X115930838Y-77066208D01*
X115889744Y-77059700D01*
X115710256Y-77059700D01*
X115669161Y-77066208D01*
X115532982Y-77087777D01*
X115362274Y-77143244D01*
X115202348Y-77224730D01*
X115057150Y-77330222D01*
X115057145Y-77330226D01*
X114930226Y-77457145D01*
X114930222Y-77457150D01*
X114824730Y-77602348D01*
X114743244Y-77762274D01*
X114687777Y-77932982D01*
X114659700Y-78110256D01*
X114659700Y-78289744D01*
X114687778Y-78467021D01*
X114742162Y-78634397D01*
X114743244Y-78637725D01*
X114824730Y-78797651D01*
X114930222Y-78942849D01*
X114930226Y-78942854D01*
X115057145Y-79069773D01*
X115057150Y-79069777D01*
X115202348Y-79175269D01*
X115202350Y-79175270D01*
X115202353Y-79175272D01*
X115362277Y-79256757D01*
X115532979Y-79312222D01*
X115710256Y-79340300D01*
X115710257Y-79340300D01*
X115889743Y-79340300D01*
X115889744Y-79340300D01*
X116067021Y-79312222D01*
X116237723Y-79256757D01*
X116397647Y-79175272D01*
X116542856Y-79069772D01*
X116669772Y-78942856D01*
X116775272Y-78797647D01*
X116856757Y-78637723D01*
X116857568Y-78635225D01*
X116858134Y-78634397D01*
X116858618Y-78633230D01*
X116858863Y-78633331D01*
X116897003Y-78577549D01*
X116961360Y-78550349D01*
X117030207Y-78562261D01*
X117081685Y-78609503D01*
X117099500Y-78673540D01*
X117099500Y-80266459D01*
X117079815Y-80333498D01*
X117027011Y-80379253D01*
X116957853Y-80389197D01*
X116894297Y-80360172D01*
X116858831Y-80306681D01*
X116858618Y-80306770D01*
X116858164Y-80305675D01*
X116857569Y-80304777D01*
X116856757Y-80302277D01*
X116775272Y-80142353D01*
X116775270Y-80142350D01*
X116775269Y-80142348D01*
X116669777Y-79997150D01*
X116669773Y-79997145D01*
X116542854Y-79870226D01*
X116542849Y-79870222D01*
X116397651Y-79764730D01*
X116237725Y-79683244D01*
X116237724Y-79683243D01*
X116237723Y-79683243D01*
X116067021Y-79627778D01*
X116067019Y-79627777D01*
X116067018Y-79627777D01*
X115930838Y-79606208D01*
X115889744Y-79599700D01*
X115710256Y-79599700D01*
X115669161Y-79606208D01*
X115532982Y-79627777D01*
X115362279Y-79683242D01*
X115362273Y-79683244D01*
X115313987Y-79707847D01*
X115245317Y-79720742D01*
X115180577Y-79694464D01*
X115170013Y-79685042D01*
X112252357Y-76767386D01*
X112218872Y-76706063D01*
X112218448Y-76704030D01*
X112199737Y-76609963D01*
X112199735Y-76609958D01*
X112139397Y-76464287D01*
X112139390Y-76464274D01*
X112051789Y-76333171D01*
X112051786Y-76333167D01*
X111940292Y-76221673D01*
X111940288Y-76221670D01*
X111809185Y-76134069D01*
X111809172Y-76134062D01*
X111663501Y-76073724D01*
X111663489Y-76073721D01*
X111508845Y-76042960D01*
X111508842Y-76042960D01*
X110551158Y-76042960D01*
X110551155Y-76042960D01*
X110396510Y-76073721D01*
X110396498Y-76073724D01*
X110250827Y-76134062D01*
X110250814Y-76134069D01*
X110119711Y-76221670D01*
X110119707Y-76221673D01*
X110008213Y-76333167D01*
X110008210Y-76333171D01*
X109920609Y-76464274D01*
X109920602Y-76464287D01*
X109860264Y-76609958D01*
X109860261Y-76609970D01*
X109829500Y-76764613D01*
X109829500Y-76922306D01*
X109860261Y-77076949D01*
X109860264Y-77076961D01*
X109920602Y-77222632D01*
X109920609Y-77222645D01*
X110008210Y-77353748D01*
X110008213Y-77353752D01*
X110119707Y-77465246D01*
X110119711Y-77465249D01*
X110250814Y-77552850D01*
X110250827Y-77552857D01*
X110370311Y-77602348D01*
X110396503Y-77613197D01*
X110551153Y-77643959D01*
X110551156Y-77643960D01*
X110551158Y-77643960D01*
X111508844Y-77643960D01*
X111508845Y-77643959D01*
X111663497Y-77613197D01*
X111809179Y-77552854D01*
X111940289Y-77465249D01*
X111940302Y-77465235D01*
X111941265Y-77464446D01*
X111941886Y-77464181D01*
X111945354Y-77461865D01*
X111945792Y-77462521D01*
X112005569Y-77437120D01*
X112074439Y-77448897D01*
X112107631Y-77472602D01*
X114745042Y-80110013D01*
X114778527Y-80171336D01*
X114773543Y-80241028D01*
X114767847Y-80253987D01*
X114743244Y-80302273D01*
X114743242Y-80302279D01*
X114687777Y-80472982D01*
X114659700Y-80650256D01*
X114659700Y-80829744D01*
X114687778Y-81007021D01*
X114742162Y-81174397D01*
X114743244Y-81177725D01*
X114824730Y-81337651D01*
X114930222Y-81482849D01*
X114930226Y-81482854D01*
X115057145Y-81609773D01*
X115057150Y-81609777D01*
X115202348Y-81715269D01*
X115202350Y-81715270D01*
X115202353Y-81715272D01*
X115362277Y-81796757D01*
X115532979Y-81852222D01*
X115710256Y-81880300D01*
X115710257Y-81880300D01*
X115889743Y-81880300D01*
X115889744Y-81880300D01*
X116067021Y-81852222D01*
X116237723Y-81796757D01*
X116397647Y-81715272D01*
X116542856Y-81609772D01*
X116669772Y-81482856D01*
X116775272Y-81337647D01*
X116856757Y-81177723D01*
X116857568Y-81175225D01*
X116858134Y-81174397D01*
X116858618Y-81173230D01*
X116858863Y-81173331D01*
X116897003Y-81117549D01*
X116961360Y-81090349D01*
X117030207Y-81102261D01*
X117081685Y-81149503D01*
X117099500Y-81213540D01*
X117099500Y-82806459D01*
X117079815Y-82873498D01*
X117027011Y-82919253D01*
X116957853Y-82929197D01*
X116894297Y-82900172D01*
X116858831Y-82846681D01*
X116858618Y-82846770D01*
X116858164Y-82845675D01*
X116857569Y-82844777D01*
X116856757Y-82842277D01*
X116775272Y-82682353D01*
X116775270Y-82682350D01*
X116775269Y-82682348D01*
X116669777Y-82537150D01*
X116669773Y-82537145D01*
X116542854Y-82410226D01*
X116542849Y-82410222D01*
X116397651Y-82304730D01*
X116237725Y-82223244D01*
X116237724Y-82223243D01*
X116237723Y-82223243D01*
X116067021Y-82167778D01*
X116067019Y-82167777D01*
X116067018Y-82167777D01*
X115930838Y-82146208D01*
X115889744Y-82139700D01*
X115710256Y-82139700D01*
X115669161Y-82146208D01*
X115532982Y-82167777D01*
X115362274Y-82223244D01*
X115202348Y-82304730D01*
X115057150Y-82410222D01*
X115057145Y-82410226D01*
X114930226Y-82537145D01*
X114930222Y-82537150D01*
X114824730Y-82682348D01*
X114743244Y-82842274D01*
X114687777Y-83012982D01*
X114659700Y-83190256D01*
X114659700Y-83369744D01*
X114687778Y-83547021D01*
X114742162Y-83714397D01*
X114743244Y-83717725D01*
X114824730Y-83877651D01*
X114930222Y-84022849D01*
X114930226Y-84022854D01*
X115057145Y-84149773D01*
X115057150Y-84149777D01*
X115202348Y-84255269D01*
X115202350Y-84255270D01*
X115202353Y-84255272D01*
X115362277Y-84336757D01*
X115532979Y-84392222D01*
X115710256Y-84420300D01*
X115710257Y-84420300D01*
X115889743Y-84420300D01*
X115889744Y-84420300D01*
X116067021Y-84392222D01*
X116237723Y-84336757D01*
X116397647Y-84255272D01*
X116542856Y-84149772D01*
X116669772Y-84022856D01*
X116775272Y-83877647D01*
X116856757Y-83717723D01*
X116857568Y-83715225D01*
X116858134Y-83714397D01*
X116858618Y-83713230D01*
X116858863Y-83713331D01*
X116897003Y-83657549D01*
X116961360Y-83630349D01*
X117030207Y-83642261D01*
X117081685Y-83689503D01*
X117099500Y-83753540D01*
X117099500Y-84044166D01*
X117079815Y-84111205D01*
X117063181Y-84131847D01*
X116429985Y-84765042D01*
X116368662Y-84798527D01*
X116298970Y-84793543D01*
X116286010Y-84787846D01*
X116237730Y-84763246D01*
X116237724Y-84763243D01*
X116237723Y-84763243D01*
X116067021Y-84707778D01*
X116067019Y-84707777D01*
X116067018Y-84707777D01*
X115930838Y-84686208D01*
X115889744Y-84679700D01*
X115710256Y-84679700D01*
X115669161Y-84686208D01*
X115532982Y-84707777D01*
X115362274Y-84763244D01*
X115202348Y-84844730D01*
X115057150Y-84950222D01*
X115057145Y-84950226D01*
X114930226Y-85077145D01*
X114930222Y-85077150D01*
X114824730Y-85222348D01*
X114743244Y-85382274D01*
X114687777Y-85552982D01*
X114659700Y-85730256D01*
X114659700Y-85909743D01*
X114687777Y-86087017D01*
X114743244Y-86257725D01*
X114824730Y-86417651D01*
X114930222Y-86562849D01*
X114930226Y-86562854D01*
X115057145Y-86689773D01*
X115057150Y-86689777D01*
X115202351Y-86795271D01*
X115234096Y-86811446D01*
X115284893Y-86859420D01*
X115301688Y-86927241D01*
X115279151Y-86993376D01*
X115234097Y-87032416D01*
X115045376Y-87128575D01*
X114862039Y-87261776D01*
X114862034Y-87261780D01*
X114701780Y-87422034D01*
X114701776Y-87422039D01*
X114568575Y-87605376D01*
X114465683Y-87807311D01*
X114395653Y-88022841D01*
X114395653Y-88022844D01*
X114381849Y-88110000D01*
X115357749Y-88110000D01*
X115326619Y-88163919D01*
X115292000Y-88293120D01*
X115292000Y-88426880D01*
X115326619Y-88556081D01*
X115357749Y-88610000D01*
X114381849Y-88610000D01*
X114395653Y-88697155D01*
X114395653Y-88697158D01*
X114465683Y-88912688D01*
X114568575Y-89114623D01*
X114701776Y-89297960D01*
X114701780Y-89297965D01*
X114862034Y-89458219D01*
X114862039Y-89458223D01*
X115045376Y-89591424D01*
X115247311Y-89694316D01*
X115462838Y-89764344D01*
X115550000Y-89778149D01*
X115550000Y-88802251D01*
X115603919Y-88833381D01*
X115733120Y-88868000D01*
X115866880Y-88868000D01*
X115996081Y-88833381D01*
X116050000Y-88802251D01*
X116050000Y-89778148D01*
X116137161Y-89764344D01*
X116352688Y-89694316D01*
X116554623Y-89591424D01*
X116737960Y-89458223D01*
X116737965Y-89458219D01*
X116898219Y-89297965D01*
X116898223Y-89297960D01*
X117031424Y-89114623D01*
X117134316Y-88912688D01*
X117204346Y-88697158D01*
X117204346Y-88697155D01*
X117218151Y-88610000D01*
X116242251Y-88610000D01*
X116273381Y-88556081D01*
X116308000Y-88426880D01*
X116308000Y-88293120D01*
X116273381Y-88163919D01*
X116242251Y-88110000D01*
X117218151Y-88110000D01*
X117204346Y-88022844D01*
X117204346Y-88022841D01*
X117134316Y-87807311D01*
X117031424Y-87605376D01*
X116898223Y-87422039D01*
X116898219Y-87422034D01*
X116737965Y-87261780D01*
X116737960Y-87261776D01*
X116554623Y-87128575D01*
X116365902Y-87032416D01*
X116315106Y-86984441D01*
X116298311Y-86916620D01*
X116320849Y-86850485D01*
X116365901Y-86811446D01*
X116397647Y-86795272D01*
X116542856Y-86689772D01*
X116669772Y-86562856D01*
X116775272Y-86417647D01*
X116856757Y-86257723D01*
X116912222Y-86087021D01*
X116940300Y-85909744D01*
X116940300Y-85730256D01*
X116912222Y-85552979D01*
X116856757Y-85382277D01*
X116856754Y-85382271D01*
X116832153Y-85333987D01*
X116819257Y-85265318D01*
X116845534Y-85200578D01*
X116854948Y-85190021D01*
X117640460Y-84404511D01*
X117680022Y-84335988D01*
X117700500Y-84259562D01*
X117700500Y-84180438D01*
X117700500Y-74160438D01*
X117689525Y-74119480D01*
X117680022Y-74084012D01*
X117640460Y-74015489D01*
X116653136Y-73028165D01*
X116619651Y-72966842D01*
X116624635Y-72897150D01*
X116626257Y-72893030D01*
X116641853Y-72855378D01*
X116641855Y-72855374D01*
X116675500Y-72686229D01*
X116675500Y-72513771D01*
X116675500Y-72513768D01*
X116675499Y-72513766D01*
X116641856Y-72344633D01*
X116641855Y-72344626D01*
X116612497Y-72273749D01*
X116575861Y-72185301D01*
X116575854Y-72185288D01*
X116480045Y-72041901D01*
X116480042Y-72041897D01*
X116358102Y-71919957D01*
X116358098Y-71919954D01*
X116214711Y-71824145D01*
X116214698Y-71824138D01*
X116055378Y-71758146D01*
X116055366Y-71758143D01*
X115886232Y-71724500D01*
X115886229Y-71724500D01*
X115713771Y-71724500D01*
X115713768Y-71724500D01*
X115544633Y-71758143D01*
X115544621Y-71758146D01*
X115385301Y-71824138D01*
X115385288Y-71824145D01*
X115241901Y-71919954D01*
X115241897Y-71919957D01*
X115119957Y-72041897D01*
X115119954Y-72041901D01*
X115024145Y-72185288D01*
X115024138Y-72185301D01*
X114958146Y-72344621D01*
X114958143Y-72344633D01*
X114924500Y-72513766D01*
X114924500Y-72575500D01*
X114904815Y-72642539D01*
X114852011Y-72688294D01*
X114800500Y-72699500D01*
X111878753Y-72699500D01*
X111811714Y-72679815D01*
X111765959Y-72627011D01*
X111756015Y-72557853D01*
X111785040Y-72494297D01*
X111809862Y-72472398D01*
X111856062Y-72441527D01*
X111940289Y-72385249D01*
X112051789Y-72273749D01*
X112139394Y-72142639D01*
X112199737Y-71996957D01*
X112230500Y-71842302D01*
X112230500Y-71684618D01*
X112230500Y-71684615D01*
X112230499Y-71684613D01*
X112199738Y-71529970D01*
X112199737Y-71529963D01*
X112177178Y-71475500D01*
X112139397Y-71384287D01*
X112139390Y-71384274D01*
X112051789Y-71253171D01*
X112051786Y-71253167D01*
X111940292Y-71141673D01*
X111940288Y-71141670D01*
X111809185Y-71054069D01*
X111809172Y-71054062D01*
X111663501Y-70993724D01*
X111663489Y-70993721D01*
X111508845Y-70962960D01*
X111508842Y-70962960D01*
X110551158Y-70962960D01*
X110551155Y-70962960D01*
X110396510Y-70993721D01*
X110396498Y-70993724D01*
X110250827Y-71054062D01*
X110250814Y-71054069D01*
X110119711Y-71141670D01*
X110119707Y-71141673D01*
X110008213Y-71253167D01*
X110008210Y-71253171D01*
X109920609Y-71384274D01*
X109920602Y-71384287D01*
X109860264Y-71529958D01*
X109860261Y-71529970D01*
X109829500Y-71684613D01*
X109829500Y-71842306D01*
X109860261Y-71996949D01*
X109860264Y-71996961D01*
X109920602Y-72142632D01*
X109920609Y-72142645D01*
X110008210Y-72273748D01*
X110008213Y-72273752D01*
X110119707Y-72385246D01*
X110119711Y-72385249D01*
X110250138Y-72472398D01*
X110294943Y-72526010D01*
X110303650Y-72595335D01*
X110273496Y-72658363D01*
X110214053Y-72695082D01*
X110181247Y-72699500D01*
X91973898Y-72699500D01*
X91935684Y-72709739D01*
X91897469Y-72719979D01*
X91897464Y-72719982D01*
X91828955Y-72759535D01*
X91828947Y-72759541D01*
X88581848Y-76006641D01*
X88520525Y-76040126D01*
X88494167Y-76042960D01*
X87845833Y-76042960D01*
X87778794Y-76023275D01*
X87758152Y-76006641D01*
X86536819Y-74785308D01*
X86503334Y-74723985D01*
X86500500Y-74697627D01*
X86500500Y-74224613D01*
X86969500Y-74224613D01*
X86969500Y-74382306D01*
X87000261Y-74536949D01*
X87000264Y-74536961D01*
X87060602Y-74682632D01*
X87060609Y-74682645D01*
X87148210Y-74813748D01*
X87148213Y-74813752D01*
X87259707Y-74925246D01*
X87259711Y-74925249D01*
X87390814Y-75012850D01*
X87390827Y-75012857D01*
X87499746Y-75057972D01*
X87536503Y-75073197D01*
X87691153Y-75103959D01*
X87691156Y-75103960D01*
X87691158Y-75103960D01*
X88648844Y-75103960D01*
X88648845Y-75103959D01*
X88803497Y-75073197D01*
X88949179Y-75012854D01*
X89080289Y-74925249D01*
X89191789Y-74813749D01*
X89279394Y-74682639D01*
X89339737Y-74536957D01*
X89370500Y-74382302D01*
X89370500Y-74224618D01*
X89370500Y-74224615D01*
X89370499Y-74224613D01*
X89357734Y-74160438D01*
X89339737Y-74069963D01*
X89339735Y-74069958D01*
X89279397Y-73924287D01*
X89279390Y-73924274D01*
X89191789Y-73793171D01*
X89191786Y-73793167D01*
X89080292Y-73681673D01*
X89080288Y-73681670D01*
X88949185Y-73594069D01*
X88949172Y-73594062D01*
X88803501Y-73533724D01*
X88803489Y-73533721D01*
X88648845Y-73502960D01*
X88648842Y-73502960D01*
X87691158Y-73502960D01*
X87691155Y-73502960D01*
X87536510Y-73533721D01*
X87536498Y-73533724D01*
X87390827Y-73594062D01*
X87390814Y-73594069D01*
X87259711Y-73681670D01*
X87259707Y-73681673D01*
X87148213Y-73793167D01*
X87148210Y-73793171D01*
X87060609Y-73924274D01*
X87060602Y-73924287D01*
X87000264Y-74069958D01*
X87000261Y-74069970D01*
X86969500Y-74224613D01*
X86500500Y-74224613D01*
X86500500Y-71684613D01*
X86969500Y-71684613D01*
X86969500Y-71842306D01*
X87000261Y-71996949D01*
X87000264Y-71996961D01*
X87060602Y-72142632D01*
X87060609Y-72142645D01*
X87148210Y-72273748D01*
X87148213Y-72273752D01*
X87259707Y-72385246D01*
X87259711Y-72385249D01*
X87390814Y-72472850D01*
X87390827Y-72472857D01*
X87489604Y-72513771D01*
X87536503Y-72533197D01*
X87691153Y-72563959D01*
X87691156Y-72563960D01*
X87691158Y-72563960D01*
X88648844Y-72563960D01*
X88648845Y-72563959D01*
X88803497Y-72533197D01*
X88949179Y-72472854D01*
X89080289Y-72385249D01*
X89191789Y-72273749D01*
X89279394Y-72142639D01*
X89339737Y-71996957D01*
X89370500Y-71842302D01*
X89370500Y-71684618D01*
X89370500Y-71684615D01*
X89370499Y-71684613D01*
X89339738Y-71529970D01*
X89339737Y-71529963D01*
X89317178Y-71475500D01*
X89279397Y-71384287D01*
X89279390Y-71384274D01*
X89191789Y-71253171D01*
X89191786Y-71253167D01*
X89080292Y-71141673D01*
X89080288Y-71141670D01*
X88949185Y-71054069D01*
X88949172Y-71054062D01*
X88803501Y-70993724D01*
X88803489Y-70993721D01*
X88648845Y-70962960D01*
X88648842Y-70962960D01*
X87691158Y-70962960D01*
X87691155Y-70962960D01*
X87536510Y-70993721D01*
X87536498Y-70993724D01*
X87390827Y-71054062D01*
X87390814Y-71054069D01*
X87259711Y-71141670D01*
X87259707Y-71141673D01*
X87148213Y-71253167D01*
X87148210Y-71253171D01*
X87060609Y-71384274D01*
X87060602Y-71384287D01*
X87000264Y-71529958D01*
X87000261Y-71529970D01*
X86969500Y-71684613D01*
X86500500Y-71684613D01*
X86500500Y-69144613D01*
X86969500Y-69144613D01*
X86969500Y-69302306D01*
X87000261Y-69456949D01*
X87000264Y-69456961D01*
X87060602Y-69602632D01*
X87060609Y-69602645D01*
X87148210Y-69733748D01*
X87148213Y-69733752D01*
X87259707Y-69845246D01*
X87259711Y-69845249D01*
X87390814Y-69932850D01*
X87390827Y-69932857D01*
X87536498Y-69993195D01*
X87536503Y-69993197D01*
X87691153Y-70023959D01*
X87691156Y-70023960D01*
X87691158Y-70023960D01*
X88648844Y-70023960D01*
X88648845Y-70023959D01*
X88803497Y-69993197D01*
X88949179Y-69932854D01*
X89080289Y-69845249D01*
X89191789Y-69733749D01*
X89279394Y-69602639D01*
X89339737Y-69456957D01*
X89370500Y-69302302D01*
X89370500Y-69144618D01*
X89370500Y-69144615D01*
X89370499Y-69144613D01*
X109829500Y-69144613D01*
X109829500Y-69302306D01*
X109860261Y-69456949D01*
X109860264Y-69456961D01*
X109920602Y-69602632D01*
X109920609Y-69602645D01*
X110008210Y-69733748D01*
X110008213Y-69733752D01*
X110119707Y-69845246D01*
X110119711Y-69845249D01*
X110250814Y-69932850D01*
X110250827Y-69932857D01*
X110396498Y-69993195D01*
X110396503Y-69993197D01*
X110551153Y-70023959D01*
X110551156Y-70023960D01*
X110551158Y-70023960D01*
X111354167Y-70023960D01*
X111421206Y-70043645D01*
X111441848Y-70060279D01*
X112222029Y-70840460D01*
X112290552Y-70880022D01*
X112366978Y-70900500D01*
X114800500Y-70900500D01*
X114867539Y-70920185D01*
X114913294Y-70972989D01*
X114924500Y-71024500D01*
X114924500Y-71294752D01*
X114936131Y-71353229D01*
X114936132Y-71353230D01*
X114980447Y-71419552D01*
X115046769Y-71463867D01*
X115046770Y-71463868D01*
X115105247Y-71475499D01*
X115105250Y-71475500D01*
X115105252Y-71475500D01*
X116494750Y-71475500D01*
X116494751Y-71475499D01*
X116509568Y-71472552D01*
X116553229Y-71463868D01*
X116553229Y-71463867D01*
X116553231Y-71463867D01*
X116619552Y-71419552D01*
X116663867Y-71353231D01*
X116663867Y-71353229D01*
X116663868Y-71353229D01*
X116675499Y-71294752D01*
X116675500Y-71294750D01*
X116675500Y-69905249D01*
X116675499Y-69905247D01*
X116663868Y-69846770D01*
X116663867Y-69846769D01*
X116619552Y-69780447D01*
X116553230Y-69736132D01*
X116553229Y-69736131D01*
X116494752Y-69724500D01*
X116494748Y-69724500D01*
X115105252Y-69724500D01*
X115105247Y-69724500D01*
X115046770Y-69736131D01*
X115046769Y-69736132D01*
X114980447Y-69780447D01*
X114936132Y-69846769D01*
X114936131Y-69846770D01*
X114924500Y-69905247D01*
X114924500Y-70175500D01*
X114904815Y-70242539D01*
X114852011Y-70288294D01*
X114800500Y-70299500D01*
X112582373Y-70299500D01*
X112515334Y-70279815D01*
X112494692Y-70263181D01*
X112089088Y-69857577D01*
X112055603Y-69796254D01*
X112060587Y-69726562D01*
X112073666Y-69701007D01*
X112139394Y-69602639D01*
X112199737Y-69456957D01*
X112230500Y-69302302D01*
X112230500Y-69144618D01*
X112230500Y-69144615D01*
X112230499Y-69144613D01*
X112199738Y-68989970D01*
X112199737Y-68989963D01*
X112199735Y-68989958D01*
X112139397Y-68844287D01*
X112139390Y-68844274D01*
X112051789Y-68713171D01*
X112051786Y-68713167D01*
X111940292Y-68601673D01*
X111940288Y-68601670D01*
X111809185Y-68514069D01*
X111809172Y-68514062D01*
X111663501Y-68453724D01*
X111663489Y-68453721D01*
X111508845Y-68422960D01*
X111508842Y-68422960D01*
X110551158Y-68422960D01*
X110551155Y-68422960D01*
X110396510Y-68453721D01*
X110396498Y-68453724D01*
X110250827Y-68514062D01*
X110250814Y-68514069D01*
X110119711Y-68601670D01*
X110119707Y-68601673D01*
X110008213Y-68713167D01*
X110008210Y-68713171D01*
X109920609Y-68844274D01*
X109920602Y-68844287D01*
X109860264Y-68989958D01*
X109860261Y-68989970D01*
X109829500Y-69144613D01*
X89370499Y-69144613D01*
X89339738Y-68989970D01*
X89339737Y-68989963D01*
X89339735Y-68989958D01*
X89279397Y-68844287D01*
X89279390Y-68844274D01*
X89191789Y-68713171D01*
X89191786Y-68713167D01*
X89080292Y-68601673D01*
X89080288Y-68601670D01*
X88949185Y-68514069D01*
X88949172Y-68514062D01*
X88803501Y-68453724D01*
X88803489Y-68453721D01*
X88648845Y-68422960D01*
X88648842Y-68422960D01*
X87691158Y-68422960D01*
X87691155Y-68422960D01*
X87536510Y-68453721D01*
X87536498Y-68453724D01*
X87390827Y-68514062D01*
X87390814Y-68514069D01*
X87259711Y-68601670D01*
X87259707Y-68601673D01*
X87148213Y-68713167D01*
X87148210Y-68713171D01*
X87060609Y-68844274D01*
X87060602Y-68844287D01*
X87000264Y-68989958D01*
X87000261Y-68989970D01*
X86969500Y-69144613D01*
X86500500Y-69144613D01*
X86500500Y-66604613D01*
X86969500Y-66604613D01*
X86969500Y-66762306D01*
X87000261Y-66916949D01*
X87000264Y-66916961D01*
X87060602Y-67062632D01*
X87060609Y-67062645D01*
X87148210Y-67193748D01*
X87148213Y-67193752D01*
X87259707Y-67305246D01*
X87259711Y-67305249D01*
X87390814Y-67392850D01*
X87390827Y-67392857D01*
X87533270Y-67451858D01*
X87536503Y-67453197D01*
X87691153Y-67483959D01*
X87691156Y-67483960D01*
X87691158Y-67483960D01*
X88648844Y-67483960D01*
X88648845Y-67483959D01*
X88803497Y-67453197D01*
X88949179Y-67392854D01*
X89080289Y-67305249D01*
X89191789Y-67193749D01*
X89279394Y-67062639D01*
X89339737Y-66916957D01*
X89370500Y-66762302D01*
X89370500Y-66604618D01*
X89370500Y-66604615D01*
X89370499Y-66604613D01*
X109829500Y-66604613D01*
X109829500Y-66762306D01*
X109860261Y-66916949D01*
X109860264Y-66916961D01*
X109920602Y-67062632D01*
X109920609Y-67062645D01*
X110008210Y-67193748D01*
X110008213Y-67193752D01*
X110119707Y-67305246D01*
X110119711Y-67305249D01*
X110250814Y-67392850D01*
X110250827Y-67392857D01*
X110393270Y-67451858D01*
X110396503Y-67453197D01*
X110551153Y-67483959D01*
X110551156Y-67483960D01*
X110551158Y-67483960D01*
X111508844Y-67483960D01*
X111508845Y-67483959D01*
X111663497Y-67453197D01*
X111809179Y-67392854D01*
X111940289Y-67305249D01*
X112051789Y-67193749D01*
X112139394Y-67062639D01*
X112199737Y-66916957D01*
X112230500Y-66762302D01*
X112230500Y-66604618D01*
X112230500Y-66604615D01*
X112230499Y-66604613D01*
X112199738Y-66449970D01*
X112199737Y-66449963D01*
X112199735Y-66449958D01*
X112139397Y-66304287D01*
X112139390Y-66304274D01*
X112051789Y-66173171D01*
X112051786Y-66173167D01*
X111940292Y-66061673D01*
X111940288Y-66061670D01*
X111809185Y-65974069D01*
X111809172Y-65974062D01*
X111663501Y-65913724D01*
X111663489Y-65913721D01*
X111508845Y-65882960D01*
X111508842Y-65882960D01*
X110551158Y-65882960D01*
X110551155Y-65882960D01*
X110396510Y-65913721D01*
X110396498Y-65913724D01*
X110250827Y-65974062D01*
X110250814Y-65974069D01*
X110119711Y-66061670D01*
X110119707Y-66061673D01*
X110008213Y-66173167D01*
X110008210Y-66173171D01*
X109920609Y-66304274D01*
X109920602Y-66304287D01*
X109860264Y-66449958D01*
X109860261Y-66449970D01*
X109829500Y-66604613D01*
X89370499Y-66604613D01*
X89339738Y-66449970D01*
X89339737Y-66449963D01*
X89339735Y-66449958D01*
X89279397Y-66304287D01*
X89279390Y-66304274D01*
X89191789Y-66173171D01*
X89191786Y-66173167D01*
X89080292Y-66061673D01*
X89080288Y-66061670D01*
X88949185Y-65974069D01*
X88949172Y-65974062D01*
X88803501Y-65913724D01*
X88803489Y-65913721D01*
X88648845Y-65882960D01*
X88648842Y-65882960D01*
X87691158Y-65882960D01*
X87691155Y-65882960D01*
X87536510Y-65913721D01*
X87536498Y-65913724D01*
X87390827Y-65974062D01*
X87390814Y-65974069D01*
X87259711Y-66061670D01*
X87259707Y-66061673D01*
X87148213Y-66173167D01*
X87148210Y-66173171D01*
X87060609Y-66304274D01*
X87060602Y-66304287D01*
X87000264Y-66449958D01*
X87000261Y-66449970D01*
X86969500Y-66604613D01*
X86500500Y-66604613D01*
X86500500Y-64064613D01*
X86969500Y-64064613D01*
X86969500Y-64222306D01*
X87000261Y-64376949D01*
X87000264Y-64376961D01*
X87060602Y-64522632D01*
X87060609Y-64522645D01*
X87148210Y-64653748D01*
X87148213Y-64653752D01*
X87259707Y-64765246D01*
X87259711Y-64765249D01*
X87390814Y-64852850D01*
X87390827Y-64852857D01*
X87536498Y-64913195D01*
X87536503Y-64913197D01*
X87691153Y-64943959D01*
X87691156Y-64943960D01*
X87691158Y-64943960D01*
X88648844Y-64943960D01*
X88648845Y-64943959D01*
X88803497Y-64913197D01*
X88949179Y-64852854D01*
X89080289Y-64765249D01*
X89191789Y-64653749D01*
X89279394Y-64522639D01*
X89339737Y-64376957D01*
X89370500Y-64222302D01*
X89370500Y-64064618D01*
X89370500Y-64064615D01*
X89370499Y-64064613D01*
X109829500Y-64064613D01*
X109829500Y-64222306D01*
X109860261Y-64376949D01*
X109860264Y-64376961D01*
X109920602Y-64522632D01*
X109920609Y-64522645D01*
X110008210Y-64653748D01*
X110008213Y-64653752D01*
X110119707Y-64765246D01*
X110119711Y-64765249D01*
X110250814Y-64852850D01*
X110250827Y-64852857D01*
X110396498Y-64913195D01*
X110396503Y-64913197D01*
X110551153Y-64943959D01*
X110551156Y-64943960D01*
X110551158Y-64943960D01*
X111508844Y-64943960D01*
X111508845Y-64943959D01*
X111663497Y-64913197D01*
X111809179Y-64852854D01*
X111940289Y-64765249D01*
X112051789Y-64653749D01*
X112139394Y-64522639D01*
X112199737Y-64376957D01*
X112230500Y-64222302D01*
X112230500Y-64064618D01*
X112230500Y-64064615D01*
X112230499Y-64064613D01*
X112210910Y-63966133D01*
X112199737Y-63909963D01*
X112199735Y-63909958D01*
X112139397Y-63764287D01*
X112139390Y-63764274D01*
X112051789Y-63633171D01*
X112051786Y-63633167D01*
X111940292Y-63521673D01*
X111940288Y-63521670D01*
X111809185Y-63434069D01*
X111809172Y-63434062D01*
X111663501Y-63373724D01*
X111663489Y-63373721D01*
X111508845Y-63342960D01*
X111508842Y-63342960D01*
X110551158Y-63342960D01*
X110551155Y-63342960D01*
X110396510Y-63373721D01*
X110396498Y-63373724D01*
X110250827Y-63434062D01*
X110250814Y-63434069D01*
X110119711Y-63521670D01*
X110119707Y-63521673D01*
X110008213Y-63633167D01*
X110008210Y-63633171D01*
X109920609Y-63764274D01*
X109920602Y-63764287D01*
X109860264Y-63909958D01*
X109860261Y-63909970D01*
X109829500Y-64064613D01*
X89370499Y-64064613D01*
X89350910Y-63966133D01*
X89339737Y-63909963D01*
X89339735Y-63909958D01*
X89279397Y-63764287D01*
X89279390Y-63764274D01*
X89191789Y-63633171D01*
X89191786Y-63633167D01*
X89080292Y-63521673D01*
X89080288Y-63521670D01*
X88949185Y-63434069D01*
X88949172Y-63434062D01*
X88803501Y-63373724D01*
X88803489Y-63373721D01*
X88648845Y-63342960D01*
X88648842Y-63342960D01*
X87691158Y-63342960D01*
X87691155Y-63342960D01*
X87536510Y-63373721D01*
X87536498Y-63373724D01*
X87390827Y-63434062D01*
X87390814Y-63434069D01*
X87259711Y-63521670D01*
X87259707Y-63521673D01*
X87148213Y-63633167D01*
X87148210Y-63633171D01*
X87060609Y-63764274D01*
X87060602Y-63764287D01*
X87000264Y-63909958D01*
X87000261Y-63909970D01*
X86969500Y-64064613D01*
X86500500Y-64064613D01*
X86500500Y-61524613D01*
X86969500Y-61524613D01*
X86969500Y-61682306D01*
X87000261Y-61836949D01*
X87000264Y-61836961D01*
X87060602Y-61982632D01*
X87060609Y-61982645D01*
X87148210Y-62113748D01*
X87148213Y-62113752D01*
X87259707Y-62225246D01*
X87259711Y-62225249D01*
X87390814Y-62312850D01*
X87390827Y-62312857D01*
X87533270Y-62371858D01*
X87536503Y-62373197D01*
X87691153Y-62403959D01*
X87691156Y-62403960D01*
X87691158Y-62403960D01*
X88648844Y-62403960D01*
X88648845Y-62403959D01*
X88803497Y-62373197D01*
X88949179Y-62312854D01*
X89080289Y-62225249D01*
X89191789Y-62113749D01*
X89279394Y-61982639D01*
X89339737Y-61836957D01*
X89370500Y-61682302D01*
X89370500Y-61524618D01*
X89370500Y-61524615D01*
X89370499Y-61524613D01*
X89339738Y-61369970D01*
X89339737Y-61369963D01*
X89337876Y-61365469D01*
X89279397Y-61224287D01*
X89279390Y-61224274D01*
X89191789Y-61093171D01*
X89191786Y-61093167D01*
X89080292Y-60981673D01*
X89080288Y-60981670D01*
X88949185Y-60894069D01*
X88949172Y-60894062D01*
X88803501Y-60833724D01*
X88803489Y-60833721D01*
X88648845Y-60802960D01*
X88648842Y-60802960D01*
X87691158Y-60802960D01*
X87691155Y-60802960D01*
X87536510Y-60833721D01*
X87536498Y-60833724D01*
X87390827Y-60894062D01*
X87390814Y-60894069D01*
X87259711Y-60981670D01*
X87259707Y-60981673D01*
X87148213Y-61093167D01*
X87148210Y-61093171D01*
X87060609Y-61224274D01*
X87060602Y-61224287D01*
X87000264Y-61369958D01*
X87000261Y-61369970D01*
X86969500Y-61524613D01*
X86500500Y-61524613D01*
X86500500Y-58984613D01*
X86969500Y-58984613D01*
X86969500Y-59142306D01*
X87000261Y-59296949D01*
X87000264Y-59296961D01*
X87060602Y-59442632D01*
X87060609Y-59442645D01*
X87148210Y-59573748D01*
X87148213Y-59573752D01*
X87259707Y-59685246D01*
X87259711Y-59685249D01*
X87390814Y-59772850D01*
X87390827Y-59772857D01*
X87533270Y-59831858D01*
X87536503Y-59833197D01*
X87653770Y-59856523D01*
X87691153Y-59863959D01*
X87691156Y-59863960D01*
X87691158Y-59863960D01*
X88648844Y-59863960D01*
X88648845Y-59863959D01*
X88803497Y-59833197D01*
X88949179Y-59772854D01*
X89080289Y-59685249D01*
X89191789Y-59573749D01*
X89279394Y-59442639D01*
X89339737Y-59296957D01*
X89370500Y-59142302D01*
X89370500Y-58984618D01*
X89370500Y-58984615D01*
X89370499Y-58984613D01*
X89339738Y-58829970D01*
X89339737Y-58829963D01*
X89339735Y-58829958D01*
X89279397Y-58684287D01*
X89279390Y-58684274D01*
X89191789Y-58553171D01*
X89191786Y-58553167D01*
X89080292Y-58441673D01*
X89080288Y-58441670D01*
X88949185Y-58354069D01*
X88949172Y-58354062D01*
X88803501Y-58293724D01*
X88803489Y-58293721D01*
X88648845Y-58262960D01*
X88648842Y-58262960D01*
X87691158Y-58262960D01*
X87691155Y-58262960D01*
X87536510Y-58293721D01*
X87536498Y-58293724D01*
X87390827Y-58354062D01*
X87390814Y-58354069D01*
X87259711Y-58441670D01*
X87259707Y-58441673D01*
X87148213Y-58553167D01*
X87148210Y-58553171D01*
X87060609Y-58684274D01*
X87060602Y-58684287D01*
X87000264Y-58829958D01*
X87000261Y-58829970D01*
X86969500Y-58984613D01*
X86500500Y-58984613D01*
X86500500Y-55578293D01*
X86520185Y-55511254D01*
X86572989Y-55465499D01*
X86642147Y-55455555D01*
X86705703Y-55484580D01*
X86712181Y-55490612D01*
X87110911Y-55889342D01*
X87144396Y-55950665D01*
X87139412Y-56020357D01*
X87126332Y-56045914D01*
X87060609Y-56144274D01*
X87060602Y-56144287D01*
X87000264Y-56289958D01*
X87000261Y-56289970D01*
X86969500Y-56444613D01*
X86969500Y-56602306D01*
X87000261Y-56756949D01*
X87000264Y-56756961D01*
X87060602Y-56902632D01*
X87060609Y-56902645D01*
X87148210Y-57033748D01*
X87148213Y-57033752D01*
X87259707Y-57145246D01*
X87259711Y-57145249D01*
X87390814Y-57232850D01*
X87390827Y-57232857D01*
X87536498Y-57293195D01*
X87536503Y-57293197D01*
X87691153Y-57323959D01*
X87691156Y-57323960D01*
X87691158Y-57323960D01*
X88648844Y-57323960D01*
X88648845Y-57323959D01*
X88803497Y-57293197D01*
X88949179Y-57232854D01*
X89080289Y-57145249D01*
X89191789Y-57033749D01*
X89279394Y-56902639D01*
X89339737Y-56756957D01*
X89370500Y-56602302D01*
X89370500Y-56444618D01*
X89370500Y-56444615D01*
X89370499Y-56444613D01*
X89339738Y-56289970D01*
X89339737Y-56289963D01*
X89335918Y-56280743D01*
X89279397Y-56144287D01*
X89279390Y-56144274D01*
X89191789Y-56013171D01*
X89191786Y-56013167D01*
X89080292Y-55901673D01*
X89080288Y-55901670D01*
X88949185Y-55814069D01*
X88949172Y-55814062D01*
X88803501Y-55753724D01*
X88803489Y-55753721D01*
X88648845Y-55722960D01*
X88648842Y-55722960D01*
X87845833Y-55722960D01*
X87778794Y-55703275D01*
X87758152Y-55686641D01*
X86936819Y-54865308D01*
X86903334Y-54803985D01*
X86900500Y-54777627D01*
X86900500Y-54531797D01*
X86920185Y-54464758D01*
X86972989Y-54419003D01*
X87042147Y-54409059D01*
X87105703Y-54438084D01*
X87127602Y-54462906D01*
X87148210Y-54493748D01*
X87148213Y-54493752D01*
X87259707Y-54605246D01*
X87259711Y-54605249D01*
X87390814Y-54692850D01*
X87390827Y-54692857D01*
X87536498Y-54753195D01*
X87536503Y-54753197D01*
X87691153Y-54783959D01*
X87691156Y-54783960D01*
X87691158Y-54783960D01*
X88648844Y-54783960D01*
X88648845Y-54783959D01*
X88803497Y-54753197D01*
X88949179Y-54692854D01*
X89080289Y-54605249D01*
X89191789Y-54493749D01*
X89279394Y-54362639D01*
X89339737Y-54216957D01*
X89370500Y-54062302D01*
X89370500Y-53904618D01*
X89370500Y-53904615D01*
X89370499Y-53904613D01*
X89339738Y-53749970D01*
X89339737Y-53749963D01*
X89335918Y-53740743D01*
X89279397Y-53604287D01*
X89279390Y-53604274D01*
X89191789Y-53473171D01*
X89191786Y-53473167D01*
X89080292Y-53361673D01*
X89080288Y-53361670D01*
X88949185Y-53274069D01*
X88949172Y-53274062D01*
X88803501Y-53213724D01*
X88803489Y-53213721D01*
X88648845Y-53182960D01*
X88648842Y-53182960D01*
X87691158Y-53182960D01*
X87691155Y-53182960D01*
X87536510Y-53213721D01*
X87536498Y-53213724D01*
X87390827Y-53274062D01*
X87390814Y-53274069D01*
X87259711Y-53361670D01*
X87259707Y-53361673D01*
X87148213Y-53473167D01*
X87148208Y-53473173D01*
X87127601Y-53504014D01*
X87073988Y-53548819D01*
X87004663Y-53557525D01*
X86941636Y-53527369D01*
X86904918Y-53467926D01*
X86900500Y-53435122D01*
X86900500Y-51991797D01*
X86920185Y-51924758D01*
X86972989Y-51879003D01*
X87042147Y-51869059D01*
X87105703Y-51898084D01*
X87127602Y-51922906D01*
X87148210Y-51953748D01*
X87148213Y-51953752D01*
X87259707Y-52065246D01*
X87259711Y-52065249D01*
X87390814Y-52152850D01*
X87390827Y-52152857D01*
X87536498Y-52213195D01*
X87536503Y-52213197D01*
X87691153Y-52243959D01*
X87691156Y-52243960D01*
X87691158Y-52243960D01*
X88494167Y-52243960D01*
X88561206Y-52263645D01*
X88581848Y-52280279D01*
X96886080Y-60584511D01*
X96942029Y-60640460D01*
X96942031Y-60640461D01*
X96942035Y-60640464D01*
X97010544Y-60680017D01*
X97010551Y-60680021D01*
X97086978Y-60700500D01*
X97166102Y-60700500D01*
X110131739Y-60700500D01*
X110198778Y-60720185D01*
X110244533Y-60772989D01*
X110254477Y-60842147D01*
X110225452Y-60905703D01*
X110200630Y-60927602D01*
X110119711Y-60981670D01*
X110119707Y-60981673D01*
X110008213Y-61093167D01*
X110008210Y-61093171D01*
X109920609Y-61224274D01*
X109920602Y-61224287D01*
X109860264Y-61369958D01*
X109860261Y-61369970D01*
X109829500Y-61524613D01*
X109829500Y-61682306D01*
X109860261Y-61836949D01*
X109860264Y-61836961D01*
X109920602Y-61982632D01*
X109920609Y-61982645D01*
X110008210Y-62113748D01*
X110008213Y-62113752D01*
X110119707Y-62225246D01*
X110119711Y-62225249D01*
X110250814Y-62312850D01*
X110250827Y-62312857D01*
X110393270Y-62371858D01*
X110396503Y-62373197D01*
X110551153Y-62403959D01*
X110551156Y-62403960D01*
X110551158Y-62403960D01*
X111508844Y-62403960D01*
X111508845Y-62403959D01*
X111663497Y-62373197D01*
X111809179Y-62312854D01*
X111940289Y-62225249D01*
X112051789Y-62113749D01*
X112139394Y-61982639D01*
X112199737Y-61836957D01*
X112230500Y-61682302D01*
X112230500Y-61524618D01*
X112230500Y-61524615D01*
X112230499Y-61524613D01*
X112199738Y-61369970D01*
X112199737Y-61369963D01*
X112197876Y-61365469D01*
X112139397Y-61224287D01*
X112139390Y-61224274D01*
X112051789Y-61093171D01*
X112051786Y-61093167D01*
X111940292Y-60981673D01*
X111940288Y-60981670D01*
X111859370Y-60927602D01*
X111814565Y-60873990D01*
X111805858Y-60804665D01*
X111836013Y-60741637D01*
X111895456Y-60704918D01*
X111928261Y-60700500D01*
X114090034Y-60700500D01*
X114157073Y-60720185D01*
X114177715Y-60736819D01*
X114745042Y-61304146D01*
X114778527Y-61365469D01*
X114773543Y-61435161D01*
X114767847Y-61448120D01*
X114743244Y-61496406D01*
X114743242Y-61496412D01*
X114687777Y-61667115D01*
X114659700Y-61844389D01*
X114659700Y-62023876D01*
X114687777Y-62201150D01*
X114743244Y-62371858D01*
X114824730Y-62531784D01*
X114930222Y-62676982D01*
X114930226Y-62676987D01*
X115057145Y-62803906D01*
X115057150Y-62803910D01*
X115202351Y-62909404D01*
X115234096Y-62925579D01*
X115284893Y-62973553D01*
X115301688Y-63041374D01*
X115279151Y-63107509D01*
X115234097Y-63146549D01*
X115045376Y-63242708D01*
X114862039Y-63375909D01*
X114862034Y-63375913D01*
X114701780Y-63536167D01*
X114701776Y-63536172D01*
X114568575Y-63719509D01*
X114465683Y-63921444D01*
X114395653Y-64136974D01*
X114395653Y-64136977D01*
X114381849Y-64224133D01*
X115357749Y-64224133D01*
X115326619Y-64278052D01*
X115292000Y-64407253D01*
X115292000Y-64541013D01*
X115326619Y-64670214D01*
X115357749Y-64724133D01*
X114381849Y-64724133D01*
X114395653Y-64811288D01*
X114395653Y-64811291D01*
X114465683Y-65026821D01*
X114568575Y-65228756D01*
X114701776Y-65412093D01*
X114701780Y-65412098D01*
X114862034Y-65572352D01*
X114862039Y-65572356D01*
X115045376Y-65705557D01*
X115234097Y-65801716D01*
X115284893Y-65849691D01*
X115301688Y-65917512D01*
X115279151Y-65983646D01*
X115234099Y-66022685D01*
X115202349Y-66038862D01*
X115057150Y-66144355D01*
X115057145Y-66144359D01*
X114930226Y-66271278D01*
X114930222Y-66271283D01*
X114824730Y-66416481D01*
X114743244Y-66576407D01*
X114687777Y-66747115D01*
X114659700Y-66924389D01*
X114659700Y-67103876D01*
X114687777Y-67281150D01*
X114743244Y-67451858D01*
X114824730Y-67611784D01*
X114930222Y-67756982D01*
X114930226Y-67756987D01*
X115057145Y-67883906D01*
X115057150Y-67883910D01*
X115202348Y-67989402D01*
X115202350Y-67989403D01*
X115202353Y-67989405D01*
X115362277Y-68070890D01*
X115532979Y-68126355D01*
X115710256Y-68154433D01*
X115710257Y-68154433D01*
X115889743Y-68154433D01*
X115889744Y-68154433D01*
X116067021Y-68126355D01*
X116237723Y-68070890D01*
X116397647Y-67989405D01*
X116542856Y-67883905D01*
X116669772Y-67756989D01*
X116775272Y-67611780D01*
X116856757Y-67451856D01*
X116912222Y-67281154D01*
X116940300Y-67103877D01*
X116940300Y-66924389D01*
X116912222Y-66747112D01*
X116856757Y-66576410D01*
X116775272Y-66416486D01*
X116775270Y-66416483D01*
X116775269Y-66416481D01*
X116669777Y-66271283D01*
X116669773Y-66271278D01*
X116542854Y-66144359D01*
X116542849Y-66144355D01*
X116397646Y-66038860D01*
X116397645Y-66038859D01*
X116365902Y-66022685D01*
X116315106Y-65974711D01*
X116298311Y-65906890D01*
X116320849Y-65840755D01*
X116365902Y-65801716D01*
X116554624Y-65705557D01*
X116737960Y-65572356D01*
X116737965Y-65572352D01*
X116898219Y-65412098D01*
X116898223Y-65412093D01*
X117031424Y-65228756D01*
X117134316Y-65026821D01*
X117204346Y-64811291D01*
X117204346Y-64811288D01*
X117218151Y-64724133D01*
X116242251Y-64724133D01*
X116273381Y-64670214D01*
X116308000Y-64541013D01*
X116308000Y-64407253D01*
X116273381Y-64278052D01*
X116242251Y-64224133D01*
X117218151Y-64224133D01*
X117204346Y-64136977D01*
X117204346Y-64136974D01*
X117134316Y-63921444D01*
X117031424Y-63719509D01*
X116898223Y-63536172D01*
X116898219Y-63536167D01*
X116737965Y-63375913D01*
X116737960Y-63375909D01*
X116554623Y-63242708D01*
X116365902Y-63146549D01*
X116315106Y-63098574D01*
X116298311Y-63030753D01*
X116320849Y-62964618D01*
X116365901Y-62925579D01*
X116397647Y-62909405D01*
X116542856Y-62803905D01*
X116669772Y-62676989D01*
X116775272Y-62531780D01*
X116856757Y-62371856D01*
X116912222Y-62201154D01*
X116940300Y-62023877D01*
X116940300Y-61844389D01*
X116912222Y-61667112D01*
X116856757Y-61496410D01*
X116775272Y-61336486D01*
X116775270Y-61336483D01*
X116775269Y-61336481D01*
X116669777Y-61191283D01*
X116669773Y-61191278D01*
X116542854Y-61064359D01*
X116542849Y-61064355D01*
X116397651Y-60958863D01*
X116237725Y-60877377D01*
X116237724Y-60877376D01*
X116237723Y-60877376D01*
X116067021Y-60821911D01*
X116067019Y-60821910D01*
X116067018Y-60821910D01*
X115930838Y-60800341D01*
X115889744Y-60793833D01*
X115710256Y-60793833D01*
X115669161Y-60800341D01*
X115532982Y-60821910D01*
X115362279Y-60877375D01*
X115362273Y-60877377D01*
X115313987Y-60901980D01*
X115245317Y-60914875D01*
X115180577Y-60888597D01*
X115170013Y-60879175D01*
X114450379Y-60159541D01*
X114450374Y-60159537D01*
X114411317Y-60136988D01*
X114411317Y-60136987D01*
X114411315Y-60136987D01*
X114401035Y-60131052D01*
X114381857Y-60119979D01*
X114381858Y-60119979D01*
X114343642Y-60109739D01*
X114305429Y-60099500D01*
X114305427Y-60099500D01*
X111583696Y-60099500D01*
X111516657Y-60079815D01*
X111470902Y-60027011D01*
X111460958Y-59957853D01*
X111489983Y-59894297D01*
X111548761Y-59856523D01*
X111559505Y-59853883D01*
X111610330Y-59843772D01*
X111663497Y-59833197D01*
X111809179Y-59772854D01*
X111940289Y-59685249D01*
X112051789Y-59573749D01*
X112139394Y-59442639D01*
X112196659Y-59304389D01*
X114659700Y-59304389D01*
X114659700Y-59483876D01*
X114687777Y-59661150D01*
X114743244Y-59831858D01*
X114824730Y-59991784D01*
X114930222Y-60136982D01*
X114930226Y-60136987D01*
X115057145Y-60263906D01*
X115057150Y-60263910D01*
X115202348Y-60369402D01*
X115202350Y-60369403D01*
X115202353Y-60369405D01*
X115362277Y-60450890D01*
X115532979Y-60506355D01*
X115710256Y-60534433D01*
X115710257Y-60534433D01*
X115889743Y-60534433D01*
X115889744Y-60534433D01*
X116067021Y-60506355D01*
X116237723Y-60450890D01*
X116397647Y-60369405D01*
X116542856Y-60263905D01*
X116669772Y-60136989D01*
X116775272Y-59991780D01*
X116856757Y-59831856D01*
X116912222Y-59661154D01*
X116940300Y-59483877D01*
X116940300Y-59304389D01*
X116912222Y-59127112D01*
X116856757Y-58956410D01*
X116775272Y-58796486D01*
X116775270Y-58796483D01*
X116775269Y-58796481D01*
X116669777Y-58651283D01*
X116669773Y-58651278D01*
X116542854Y-58524359D01*
X116542849Y-58524355D01*
X116397651Y-58418863D01*
X116237725Y-58337377D01*
X116237724Y-58337376D01*
X116237723Y-58337376D01*
X116067021Y-58281911D01*
X116067019Y-58281910D01*
X116067018Y-58281910D01*
X115930838Y-58260341D01*
X115889744Y-58253833D01*
X115710256Y-58253833D01*
X115669161Y-58260341D01*
X115532982Y-58281910D01*
X115362274Y-58337377D01*
X115202348Y-58418863D01*
X115057150Y-58524355D01*
X115057145Y-58524359D01*
X114930226Y-58651278D01*
X114930222Y-58651283D01*
X114824730Y-58796481D01*
X114743244Y-58956407D01*
X114687777Y-59127115D01*
X114659700Y-59304389D01*
X112196659Y-59304389D01*
X112199737Y-59296957D01*
X112222397Y-59183035D01*
X112230500Y-59142304D01*
X112230500Y-58984615D01*
X112230499Y-58984613D01*
X112199738Y-58829970D01*
X112199737Y-58829963D01*
X112199735Y-58829958D01*
X112139397Y-58684287D01*
X112139390Y-58684274D01*
X112051789Y-58553171D01*
X112051786Y-58553167D01*
X111940292Y-58441673D01*
X111940288Y-58441670D01*
X111809185Y-58354069D01*
X111809172Y-58354062D01*
X111663501Y-58293724D01*
X111663489Y-58293721D01*
X111508845Y-58262960D01*
X111508842Y-58262960D01*
X110551158Y-58262960D01*
X110551155Y-58262960D01*
X110396510Y-58293721D01*
X110396498Y-58293724D01*
X110250827Y-58354062D01*
X110250814Y-58354069D01*
X110119711Y-58441670D01*
X110119707Y-58441673D01*
X110008213Y-58553167D01*
X110008210Y-58553171D01*
X109920609Y-58684274D01*
X109920602Y-58684287D01*
X109860264Y-58829958D01*
X109860261Y-58829970D01*
X109829500Y-58984613D01*
X109829500Y-59142306D01*
X109860261Y-59296949D01*
X109860264Y-59296961D01*
X109920602Y-59442632D01*
X109920609Y-59442645D01*
X110008210Y-59573748D01*
X110008213Y-59573752D01*
X110119707Y-59685246D01*
X110119711Y-59685249D01*
X110250814Y-59772850D01*
X110250827Y-59772857D01*
X110393270Y-59831858D01*
X110396503Y-59833197D01*
X110439113Y-59841672D01*
X110500495Y-59853883D01*
X110562406Y-59886268D01*
X110596980Y-59946984D01*
X110593241Y-60016753D01*
X110552374Y-60073425D01*
X110487356Y-60099006D01*
X110476304Y-60099500D01*
X97302373Y-60099500D01*
X97235334Y-60079815D01*
X97214692Y-60063181D01*
X93596124Y-56444613D01*
X109829500Y-56444613D01*
X109829500Y-56602306D01*
X109860261Y-56756949D01*
X109860264Y-56756961D01*
X109920602Y-56902632D01*
X109920609Y-56902645D01*
X110008210Y-57033748D01*
X110008213Y-57033752D01*
X110119707Y-57145246D01*
X110119711Y-57145249D01*
X110250814Y-57232850D01*
X110250827Y-57232857D01*
X110396498Y-57293195D01*
X110396503Y-57293197D01*
X110551153Y-57323959D01*
X110551156Y-57323960D01*
X110551158Y-57323960D01*
X111508844Y-57323960D01*
X111508845Y-57323959D01*
X111663497Y-57293197D01*
X111809179Y-57232854D01*
X111940289Y-57145249D01*
X112051789Y-57033749D01*
X112139394Y-56902639D01*
X112199737Y-56756957D01*
X112230500Y-56602302D01*
X112230500Y-56444618D01*
X112230500Y-56444615D01*
X112230499Y-56444613D01*
X112199738Y-56289970D01*
X112199737Y-56289963D01*
X112195918Y-56280743D01*
X112139397Y-56144287D01*
X112139390Y-56144274D01*
X112051789Y-56013171D01*
X112051786Y-56013167D01*
X111943816Y-55905197D01*
X114075500Y-55905197D01*
X114075500Y-56094802D01*
X114112486Y-56280743D01*
X114112488Y-56280751D01*
X114185042Y-56455912D01*
X114290377Y-56613558D01*
X114424441Y-56747622D01*
X114529300Y-56817686D01*
X114582085Y-56852956D01*
X114757249Y-56925512D01*
X114943197Y-56962499D01*
X114943201Y-56962500D01*
X114943202Y-56962500D01*
X116656799Y-56962500D01*
X116656800Y-56962499D01*
X116842751Y-56925512D01*
X117017915Y-56852956D01*
X117175558Y-56747622D01*
X117309622Y-56613558D01*
X117414956Y-56455915D01*
X117487512Y-56280751D01*
X117524500Y-56094798D01*
X117524500Y-55905202D01*
X117487512Y-55719249D01*
X117414956Y-55544085D01*
X117375196Y-55484580D01*
X117309622Y-55386441D01*
X117175558Y-55252377D01*
X117017912Y-55147042D01*
X116842751Y-55074488D01*
X116842743Y-55074486D01*
X116656802Y-55037500D01*
X116656798Y-55037500D01*
X114943202Y-55037500D01*
X114943197Y-55037500D01*
X114757256Y-55074486D01*
X114757248Y-55074488D01*
X114582087Y-55147042D01*
X114424441Y-55252377D01*
X114290377Y-55386441D01*
X114185042Y-55544087D01*
X114112488Y-55719248D01*
X114112486Y-55719256D01*
X114075500Y-55905197D01*
X111943816Y-55905197D01*
X111940292Y-55901673D01*
X111940288Y-55901670D01*
X111809185Y-55814069D01*
X111809172Y-55814062D01*
X111663501Y-55753724D01*
X111663489Y-55753721D01*
X111508845Y-55722960D01*
X111508842Y-55722960D01*
X110551158Y-55722960D01*
X110551155Y-55722960D01*
X110396510Y-55753721D01*
X110396498Y-55753724D01*
X110250827Y-55814062D01*
X110250814Y-55814069D01*
X110119711Y-55901670D01*
X110119707Y-55901673D01*
X110008213Y-56013167D01*
X110008210Y-56013171D01*
X109920609Y-56144274D01*
X109920602Y-56144287D01*
X109860264Y-56289958D01*
X109860261Y-56289970D01*
X109829500Y-56444613D01*
X93596124Y-56444613D01*
X89229088Y-52077577D01*
X89195603Y-52016254D01*
X89200587Y-51946562D01*
X89213666Y-51921007D01*
X89264111Y-51845512D01*
X89279389Y-51822647D01*
X89279393Y-51822640D01*
X89279394Y-51822639D01*
X89280276Y-51820511D01*
X89299973Y-51772956D01*
X89339737Y-51676957D01*
X89370500Y-51522302D01*
X89370500Y-51364618D01*
X89370500Y-51364615D01*
X89370499Y-51364613D01*
X89339738Y-51209970D01*
X89339737Y-51209963D01*
X89281958Y-51070471D01*
X89279397Y-51064287D01*
X89279390Y-51064274D01*
X89191789Y-50933171D01*
X89191786Y-50933167D01*
X89080292Y-50821673D01*
X89080288Y-50821670D01*
X88949185Y-50734069D01*
X88949172Y-50734062D01*
X88803501Y-50673724D01*
X88803489Y-50673721D01*
X88648845Y-50642960D01*
X88648842Y-50642960D01*
X87691158Y-50642960D01*
X87691155Y-50642960D01*
X87536510Y-50673721D01*
X87536498Y-50673724D01*
X87390827Y-50734062D01*
X87390814Y-50734069D01*
X87259711Y-50821670D01*
X87259707Y-50821673D01*
X87148213Y-50933167D01*
X87148208Y-50933173D01*
X87127601Y-50964014D01*
X87073988Y-51008819D01*
X87004663Y-51017525D01*
X86941636Y-50987369D01*
X86904918Y-50927926D01*
X86900500Y-50895122D01*
X86900500Y-49451797D01*
X86920185Y-49384758D01*
X86972989Y-49339003D01*
X87042147Y-49329059D01*
X87105703Y-49358084D01*
X87127602Y-49382906D01*
X87148210Y-49413748D01*
X87148213Y-49413752D01*
X87259707Y-49525246D01*
X87259711Y-49525249D01*
X87390814Y-49612850D01*
X87390827Y-49612857D01*
X87536498Y-49673195D01*
X87536503Y-49673197D01*
X87691153Y-49703959D01*
X87691156Y-49703960D01*
X87691158Y-49703960D01*
X88648844Y-49703960D01*
X88648845Y-49703959D01*
X88803497Y-49673197D01*
X88949179Y-49612854D01*
X89080289Y-49525249D01*
X89191789Y-49413749D01*
X89279394Y-49282639D01*
X89280276Y-49280511D01*
X89299973Y-49232956D01*
X89339737Y-49136957D01*
X89370500Y-48982302D01*
X89370500Y-48824618D01*
X89370500Y-48824615D01*
X89370499Y-48824613D01*
X89339738Y-48669970D01*
X89339737Y-48669963D01*
X89281958Y-48530471D01*
X89279397Y-48524287D01*
X89279390Y-48524274D01*
X89191789Y-48393171D01*
X89191786Y-48393167D01*
X89080292Y-48281673D01*
X89080288Y-48281670D01*
X88949185Y-48194069D01*
X88949172Y-48194062D01*
X88803501Y-48133724D01*
X88803489Y-48133721D01*
X88648845Y-48102960D01*
X88648842Y-48102960D01*
X87691158Y-48102960D01*
X87691155Y-48102960D01*
X87536510Y-48133721D01*
X87536498Y-48133724D01*
X87390827Y-48194062D01*
X87390814Y-48194069D01*
X87259711Y-48281670D01*
X87259707Y-48281673D01*
X87148213Y-48393167D01*
X87148208Y-48393173D01*
X87127601Y-48424014D01*
X87073988Y-48468819D01*
X87004663Y-48477525D01*
X86941636Y-48447369D01*
X86904918Y-48387926D01*
X86900500Y-48355122D01*
X86900500Y-46911797D01*
X86920185Y-46844758D01*
X86972989Y-46799003D01*
X87042147Y-46789059D01*
X87105703Y-46818084D01*
X87127602Y-46842906D01*
X87148210Y-46873748D01*
X87148213Y-46873752D01*
X87259707Y-46985246D01*
X87259711Y-46985249D01*
X87390814Y-47072850D01*
X87390827Y-47072857D01*
X87536498Y-47133195D01*
X87536503Y-47133197D01*
X87691153Y-47163959D01*
X87691156Y-47163960D01*
X87691158Y-47163960D01*
X88648844Y-47163960D01*
X88648845Y-47163959D01*
X88803497Y-47133197D01*
X88949179Y-47072854D01*
X89080289Y-46985249D01*
X89191789Y-46873749D01*
X89279394Y-46742639D01*
X89280276Y-46740511D01*
X89296940Y-46700279D01*
X89339737Y-46596957D01*
X89370500Y-46442302D01*
X89370500Y-46284618D01*
X89370500Y-46284615D01*
X89370499Y-46284613D01*
X89362918Y-46246502D01*
X89339737Y-46129963D01*
X89281958Y-45990471D01*
X89279397Y-45984287D01*
X89279390Y-45984274D01*
X89191789Y-45853171D01*
X89191786Y-45853167D01*
X89080292Y-45741673D01*
X89080288Y-45741670D01*
X88949185Y-45654069D01*
X88949172Y-45654062D01*
X88803501Y-45593724D01*
X88803489Y-45593721D01*
X88648845Y-45562960D01*
X88648842Y-45562960D01*
X87691158Y-45562960D01*
X87691155Y-45562960D01*
X87536510Y-45593721D01*
X87536498Y-45593724D01*
X87390827Y-45654062D01*
X87390814Y-45654069D01*
X87259711Y-45741670D01*
X87259707Y-45741673D01*
X87148213Y-45853167D01*
X87148208Y-45853173D01*
X87127601Y-45884014D01*
X87073988Y-45928819D01*
X87004663Y-45937525D01*
X86941636Y-45907369D01*
X86904918Y-45847926D01*
X86900500Y-45815122D01*
X86900500Y-45035183D01*
X86920185Y-44968144D01*
X86972989Y-44922389D01*
X87042147Y-44912445D01*
X87054965Y-44915716D01*
X87055070Y-44915273D01*
X87062627Y-44917058D01*
X87122155Y-44923459D01*
X87122172Y-44923460D01*
X87920000Y-44923460D01*
X87920000Y-44139146D01*
X87924394Y-44143540D01*
X88015606Y-44196201D01*
X88117339Y-44223460D01*
X88222661Y-44223460D01*
X88324394Y-44196201D01*
X88415606Y-44143540D01*
X88420000Y-44139146D01*
X88420000Y-44923460D01*
X89217828Y-44923460D01*
X89217844Y-44923459D01*
X89277372Y-44917058D01*
X89277379Y-44917056D01*
X89412086Y-44866814D01*
X89412093Y-44866810D01*
X89527187Y-44780650D01*
X89527190Y-44780647D01*
X89613350Y-44665553D01*
X89613354Y-44665546D01*
X89663596Y-44530839D01*
X89663598Y-44530832D01*
X89669999Y-44471304D01*
X89670000Y-44471287D01*
X89670000Y-44073460D01*
X88485686Y-44073460D01*
X88490080Y-44069066D01*
X88542741Y-43977854D01*
X88570000Y-43876121D01*
X88570000Y-43770799D01*
X88542741Y-43669066D01*
X88490080Y-43577854D01*
X88485686Y-43573460D01*
X89670000Y-43573460D01*
X89670000Y-43175632D01*
X89669999Y-43175615D01*
X89663598Y-43116087D01*
X89663596Y-43116080D01*
X89613354Y-42981373D01*
X89613350Y-42981366D01*
X89527190Y-42866272D01*
X89527187Y-42866269D01*
X89412093Y-42780109D01*
X89412086Y-42780105D01*
X89277379Y-42729863D01*
X89277372Y-42729861D01*
X89217844Y-42723460D01*
X88420000Y-42723460D01*
X88420000Y-43507774D01*
X88415606Y-43503380D01*
X88324394Y-43450719D01*
X88222661Y-43423460D01*
X88117339Y-43423460D01*
X88015606Y-43450719D01*
X87924394Y-43503380D01*
X87920000Y-43507774D01*
X87920000Y-42723460D01*
X87122155Y-42723460D01*
X87062627Y-42729861D01*
X87055070Y-42731647D01*
X87054417Y-42728886D01*
X86998092Y-42732891D01*
X86936783Y-42699381D01*
X86903323Y-42638044D01*
X86900500Y-42611736D01*
X86900500Y-41602651D01*
X86920185Y-41535612D01*
X86972989Y-41489857D01*
X87042147Y-41479913D01*
X87048675Y-41481031D01*
X87078831Y-41487029D01*
X87091251Y-41489500D01*
X87091252Y-41489500D01*
X88908750Y-41489500D01*
X88908751Y-41489499D01*
X88923568Y-41486552D01*
X88967229Y-41477868D01*
X88967229Y-41477867D01*
X88967231Y-41477867D01*
X89033552Y-41433552D01*
X89077867Y-41367231D01*
X89077867Y-41367229D01*
X89077868Y-41367229D01*
X89089499Y-41308752D01*
X89089500Y-41308750D01*
X89089500Y-39491249D01*
X89089499Y-39491247D01*
X89077868Y-39432770D01*
X89077867Y-39432769D01*
X89033552Y-39366447D01*
X88967230Y-39322132D01*
X88967229Y-39322131D01*
X88908752Y-39310500D01*
X88908748Y-39310500D01*
X87273832Y-39310500D01*
X87206793Y-39290815D01*
X87161038Y-39238011D01*
X87151094Y-39168853D01*
X87180119Y-39105297D01*
X87186151Y-39098819D01*
X87407784Y-38877185D01*
X87469105Y-38843702D01*
X87538796Y-38848686D01*
X87551758Y-38854383D01*
X87581777Y-38869679D01*
X87744875Y-38922673D01*
X87914254Y-38949500D01*
X87914255Y-38949500D01*
X88085745Y-38949500D01*
X88085746Y-38949500D01*
X88255125Y-38922673D01*
X88418223Y-38869679D01*
X88571022Y-38791824D01*
X88709762Y-38691024D01*
X88831024Y-38569762D01*
X88931824Y-38431022D01*
X89009679Y-38278223D01*
X89062673Y-38115125D01*
X89089500Y-37945746D01*
X89089500Y-37937738D01*
X108899500Y-37937738D01*
X108899500Y-52193022D01*
X108913149Y-52243959D01*
X108919979Y-52269450D01*
X108919982Y-52269455D01*
X108959535Y-52337964D01*
X108959541Y-52337972D01*
X109970911Y-53349342D01*
X110004396Y-53410665D01*
X109999412Y-53480357D01*
X109986332Y-53505914D01*
X109920609Y-53604274D01*
X109920602Y-53604287D01*
X109860264Y-53749958D01*
X109860261Y-53749970D01*
X109829500Y-53904613D01*
X109829500Y-54062306D01*
X109860261Y-54216949D01*
X109860264Y-54216961D01*
X109920602Y-54362632D01*
X109920609Y-54362645D01*
X110008210Y-54493748D01*
X110008213Y-54493752D01*
X110119707Y-54605246D01*
X110119711Y-54605249D01*
X110250814Y-54692850D01*
X110250827Y-54692857D01*
X110396498Y-54753195D01*
X110396503Y-54753197D01*
X110551153Y-54783959D01*
X110551156Y-54783960D01*
X110551158Y-54783960D01*
X111508844Y-54783960D01*
X111508845Y-54783959D01*
X111663497Y-54753197D01*
X111809179Y-54692854D01*
X111940289Y-54605249D01*
X112051789Y-54493749D01*
X112139394Y-54362639D01*
X112199737Y-54216957D01*
X112230500Y-54062302D01*
X112230500Y-53904618D01*
X112230500Y-53904615D01*
X112230499Y-53904613D01*
X112199738Y-53749970D01*
X112199737Y-53749963D01*
X112195918Y-53740743D01*
X112139397Y-53604287D01*
X112139390Y-53604274D01*
X112051789Y-53473171D01*
X112051786Y-53473167D01*
X111940292Y-53361673D01*
X111940288Y-53361670D01*
X111809185Y-53274069D01*
X111809172Y-53274062D01*
X111663501Y-53213724D01*
X111663489Y-53213721D01*
X111508845Y-53182960D01*
X111508842Y-53182960D01*
X110705833Y-53182960D01*
X110638794Y-53163275D01*
X110618152Y-53146641D01*
X109536819Y-52065308D01*
X109503334Y-52003985D01*
X109500500Y-51977627D01*
X109500500Y-51364613D01*
X109829500Y-51364613D01*
X109829500Y-51522306D01*
X109860261Y-51676949D01*
X109860264Y-51676961D01*
X109920602Y-51822632D01*
X109920609Y-51822645D01*
X110008210Y-51953748D01*
X110008213Y-51953752D01*
X110119707Y-52065246D01*
X110119711Y-52065249D01*
X110250814Y-52152850D01*
X110250827Y-52152857D01*
X110396498Y-52213195D01*
X110396503Y-52213197D01*
X110551153Y-52243959D01*
X110551156Y-52243960D01*
X110551158Y-52243960D01*
X111508844Y-52243960D01*
X111508845Y-52243959D01*
X111663497Y-52213197D01*
X111809179Y-52152854D01*
X111940289Y-52065249D01*
X112051789Y-51953749D01*
X112139394Y-51822639D01*
X112140275Y-51820509D01*
X112141035Y-51819566D01*
X112142264Y-51817269D01*
X112142699Y-51817501D01*
X112184115Y-51766106D01*
X112250408Y-51744039D01*
X112254838Y-51743960D01*
X113067627Y-51743960D01*
X113134666Y-51763645D01*
X113155308Y-51780279D01*
X114190819Y-52815790D01*
X114224304Y-52877113D01*
X114219320Y-52946805D01*
X114206241Y-52972361D01*
X114185043Y-53004086D01*
X114112488Y-53179248D01*
X114112486Y-53179256D01*
X114075500Y-53365197D01*
X114075500Y-53554802D01*
X114112486Y-53740743D01*
X114112488Y-53740751D01*
X114185042Y-53915912D01*
X114290377Y-54073558D01*
X114424441Y-54207622D01*
X114529300Y-54277686D01*
X114582085Y-54312956D01*
X114757249Y-54385512D01*
X114925621Y-54419003D01*
X114943197Y-54422499D01*
X114943201Y-54422500D01*
X114943202Y-54422500D01*
X116656799Y-54422500D01*
X116656800Y-54422499D01*
X116842751Y-54385512D01*
X117017915Y-54312956D01*
X117175558Y-54207622D01*
X117309622Y-54073558D01*
X117414956Y-53915915D01*
X117487512Y-53740751D01*
X117524500Y-53554798D01*
X117524500Y-53365202D01*
X117487512Y-53179249D01*
X117414956Y-53004085D01*
X117330116Y-52877113D01*
X117309622Y-52846441D01*
X117175558Y-52712377D01*
X117017912Y-52607042D01*
X116842751Y-52534488D01*
X116842743Y-52534486D01*
X116656802Y-52497500D01*
X116656798Y-52497500D01*
X114943202Y-52497500D01*
X114878523Y-52510365D01*
X114824096Y-52521191D01*
X114754505Y-52514962D01*
X114712225Y-52487254D01*
X113427975Y-51203003D01*
X113427974Y-51203002D01*
X113424075Y-51200751D01*
X113422811Y-51200021D01*
X113387386Y-51179568D01*
X113359450Y-51163439D01*
X113333973Y-51156612D01*
X113283022Y-51142960D01*
X113283020Y-51142960D01*
X112254838Y-51142960D01*
X112187799Y-51123275D01*
X112142044Y-51070471D01*
X112140275Y-51066409D01*
X112139394Y-51064281D01*
X112139391Y-51064276D01*
X112139390Y-51064274D01*
X112051789Y-50933171D01*
X112051786Y-50933167D01*
X111940292Y-50821673D01*
X111940288Y-50821670D01*
X111809185Y-50734069D01*
X111809172Y-50734062D01*
X111663501Y-50673724D01*
X111663489Y-50673721D01*
X111508845Y-50642960D01*
X111508842Y-50642960D01*
X110551158Y-50642960D01*
X110551155Y-50642960D01*
X110396510Y-50673721D01*
X110396498Y-50673724D01*
X110250827Y-50734062D01*
X110250814Y-50734069D01*
X110119711Y-50821670D01*
X110119707Y-50821673D01*
X110008213Y-50933167D01*
X110008210Y-50933171D01*
X109920609Y-51064274D01*
X109920602Y-51064287D01*
X109860264Y-51209958D01*
X109860261Y-51209970D01*
X109829500Y-51364613D01*
X109500500Y-51364613D01*
X109500500Y-48824613D01*
X109829500Y-48824613D01*
X109829500Y-48982306D01*
X109860261Y-49136949D01*
X109860264Y-49136961D01*
X109920602Y-49282632D01*
X109920609Y-49282645D01*
X110008210Y-49413748D01*
X110008213Y-49413752D01*
X110119707Y-49525246D01*
X110119711Y-49525249D01*
X110250814Y-49612850D01*
X110250827Y-49612857D01*
X110396498Y-49673195D01*
X110396503Y-49673197D01*
X110551153Y-49703959D01*
X110551156Y-49703960D01*
X110551158Y-49703960D01*
X111508844Y-49703960D01*
X111508845Y-49703959D01*
X111663497Y-49673197D01*
X111809179Y-49612854D01*
X111940289Y-49525249D01*
X112051789Y-49413749D01*
X112139394Y-49282639D01*
X112140275Y-49280509D01*
X112141035Y-49279566D01*
X112142264Y-49277269D01*
X112142699Y-49277501D01*
X112184115Y-49226106D01*
X112250408Y-49204039D01*
X112254838Y-49203960D01*
X112927627Y-49203960D01*
X112994666Y-49223645D01*
X113015308Y-49240279D01*
X114142293Y-50367264D01*
X114175778Y-50428587D01*
X114170794Y-50498279D01*
X114169173Y-50502397D01*
X114112489Y-50639244D01*
X114112486Y-50639256D01*
X114075500Y-50825197D01*
X114075500Y-51014802D01*
X114112486Y-51200743D01*
X114112488Y-51200751D01*
X114185042Y-51375912D01*
X114290377Y-51533558D01*
X114424441Y-51667622D01*
X114529300Y-51737686D01*
X114582085Y-51772956D01*
X114757249Y-51845512D01*
X114925621Y-51879003D01*
X114943197Y-51882499D01*
X114943201Y-51882500D01*
X114943202Y-51882500D01*
X116656799Y-51882500D01*
X116656800Y-51882499D01*
X116842751Y-51845512D01*
X117017915Y-51772956D01*
X117175558Y-51667622D01*
X117309622Y-51533558D01*
X117414956Y-51375915D01*
X117487512Y-51200751D01*
X117524500Y-51014798D01*
X117524500Y-50825202D01*
X117487512Y-50639249D01*
X117414956Y-50464085D01*
X117350262Y-50367264D01*
X117309622Y-50306441D01*
X117175558Y-50172377D01*
X117017912Y-50067042D01*
X116842751Y-49994488D01*
X116842743Y-49994486D01*
X116656802Y-49957500D01*
X116656798Y-49957500D01*
X114943202Y-49957500D01*
X114943197Y-49957500D01*
X114757256Y-49994486D01*
X114757248Y-49994488D01*
X114736364Y-50003139D01*
X114666894Y-50010608D01*
X114604415Y-49979333D01*
X114601230Y-49976259D01*
X113287975Y-48663003D01*
X113287974Y-48663002D01*
X113284075Y-48660751D01*
X113282811Y-48660021D01*
X113247386Y-48639568D01*
X113219450Y-48623439D01*
X113193973Y-48616612D01*
X113143022Y-48602960D01*
X113143020Y-48602960D01*
X112254838Y-48602960D01*
X112187799Y-48583275D01*
X112142044Y-48530471D01*
X112140275Y-48526409D01*
X112139394Y-48524281D01*
X112139391Y-48524276D01*
X112139390Y-48524274D01*
X112051789Y-48393171D01*
X112051786Y-48393167D01*
X111940292Y-48281673D01*
X111940288Y-48281670D01*
X111809185Y-48194069D01*
X111809172Y-48194062D01*
X111663501Y-48133724D01*
X111663489Y-48133721D01*
X111508845Y-48102960D01*
X111508842Y-48102960D01*
X110551158Y-48102960D01*
X110551155Y-48102960D01*
X110396510Y-48133721D01*
X110396498Y-48133724D01*
X110250827Y-48194062D01*
X110250814Y-48194069D01*
X110119711Y-48281670D01*
X110119707Y-48281673D01*
X110008213Y-48393167D01*
X110008210Y-48393171D01*
X109920609Y-48524274D01*
X109920602Y-48524287D01*
X109860264Y-48669958D01*
X109860261Y-48669970D01*
X109829500Y-48824613D01*
X109500500Y-48824613D01*
X109500500Y-46284613D01*
X109829500Y-46284613D01*
X109829500Y-46442306D01*
X109860261Y-46596949D01*
X109860264Y-46596961D01*
X109920602Y-46742632D01*
X109920609Y-46742645D01*
X110008210Y-46873748D01*
X110008213Y-46873752D01*
X110119707Y-46985246D01*
X110119711Y-46985249D01*
X110250814Y-47072850D01*
X110250827Y-47072857D01*
X110396498Y-47133195D01*
X110396503Y-47133197D01*
X110551153Y-47163959D01*
X110551156Y-47163960D01*
X110551158Y-47163960D01*
X111508844Y-47163960D01*
X111508845Y-47163959D01*
X111663497Y-47133197D01*
X111809179Y-47072854D01*
X111940289Y-46985249D01*
X112051789Y-46873749D01*
X112139394Y-46742639D01*
X112140275Y-46740509D01*
X112141035Y-46739566D01*
X112142264Y-46737269D01*
X112142699Y-46737501D01*
X112184115Y-46686106D01*
X112250408Y-46664039D01*
X112254838Y-46663960D01*
X112787627Y-46663960D01*
X112854666Y-46683645D01*
X112875308Y-46700279D01*
X114101288Y-47926259D01*
X114134773Y-47987582D01*
X114129789Y-48057274D01*
X114128169Y-48061390D01*
X114112488Y-48099248D01*
X114112485Y-48099256D01*
X114075500Y-48285197D01*
X114075500Y-48474802D01*
X114112486Y-48660743D01*
X114112488Y-48660751D01*
X114185042Y-48835912D01*
X114290377Y-48993558D01*
X114424441Y-49127622D01*
X114529300Y-49197686D01*
X114582085Y-49232956D01*
X114757249Y-49305512D01*
X114925621Y-49339003D01*
X114943197Y-49342499D01*
X114943201Y-49342500D01*
X114943202Y-49342500D01*
X116656799Y-49342500D01*
X116656800Y-49342499D01*
X116842751Y-49305512D01*
X117017915Y-49232956D01*
X117175558Y-49127622D01*
X117309622Y-48993558D01*
X117414956Y-48835915D01*
X117487512Y-48660751D01*
X117524500Y-48474798D01*
X117524500Y-48285202D01*
X117487512Y-48099249D01*
X117414956Y-47924085D01*
X117379686Y-47871300D01*
X117309622Y-47766441D01*
X117175558Y-47632377D01*
X117017912Y-47527042D01*
X116842751Y-47454488D01*
X116842743Y-47454486D01*
X116656802Y-47417500D01*
X116656798Y-47417500D01*
X114943202Y-47417500D01*
X114943197Y-47417500D01*
X114757256Y-47454486D01*
X114757248Y-47454488D01*
X114637369Y-47504144D01*
X114567899Y-47511613D01*
X114505420Y-47480338D01*
X114502235Y-47477264D01*
X113147972Y-46123001D01*
X113147964Y-46122995D01*
X113079455Y-46083442D01*
X113079450Y-46083439D01*
X113053973Y-46076612D01*
X113003022Y-46062960D01*
X113003020Y-46062960D01*
X112254838Y-46062960D01*
X112187799Y-46043275D01*
X112142044Y-45990471D01*
X112140275Y-45986409D01*
X112139394Y-45984281D01*
X112139391Y-45984276D01*
X112139390Y-45984274D01*
X112051789Y-45853171D01*
X112051786Y-45853167D01*
X111940289Y-45741670D01*
X111923068Y-45730164D01*
X111809185Y-45654069D01*
X111809172Y-45654062D01*
X111663501Y-45593724D01*
X111663489Y-45593721D01*
X111644777Y-45589999D01*
X113799865Y-45589999D01*
X113799865Y-45590000D01*
X115357749Y-45590000D01*
X115326619Y-45643919D01*
X115292000Y-45773120D01*
X115292000Y-45906880D01*
X115326619Y-46036081D01*
X115357749Y-46090000D01*
X113799865Y-46090000D01*
X113807074Y-46135517D01*
X113868456Y-46324435D01*
X113958641Y-46501432D01*
X114075403Y-46662139D01*
X114075403Y-46662140D01*
X114215859Y-46802596D01*
X114376567Y-46919358D01*
X114553562Y-47009542D01*
X114742477Y-47070924D01*
X114938679Y-47102000D01*
X115550000Y-47102000D01*
X115550000Y-46282251D01*
X115603919Y-46313381D01*
X115733120Y-46348000D01*
X115866880Y-46348000D01*
X115996081Y-46313381D01*
X116050000Y-46282251D01*
X116050000Y-47102000D01*
X116661321Y-47102000D01*
X116857520Y-47070924D01*
X116857523Y-47070924D01*
X117046437Y-47009542D01*
X117223432Y-46919358D01*
X117384139Y-46802596D01*
X117384140Y-46802596D01*
X117524596Y-46662140D01*
X117524596Y-46662139D01*
X117641358Y-46501432D01*
X117731543Y-46324435D01*
X117792925Y-46135517D01*
X117800134Y-46090000D01*
X116242251Y-46090000D01*
X116273381Y-46036081D01*
X116308000Y-45906880D01*
X116308000Y-45773120D01*
X116273381Y-45643919D01*
X116242251Y-45590000D01*
X117800135Y-45590000D01*
X117800134Y-45589999D01*
X117792925Y-45544482D01*
X117731543Y-45355564D01*
X117641358Y-45178567D01*
X117524596Y-45017860D01*
X117524596Y-45017859D01*
X117384140Y-44877403D01*
X117223432Y-44760641D01*
X117046437Y-44670457D01*
X116857522Y-44609075D01*
X116661321Y-44578000D01*
X116050000Y-44578000D01*
X116050000Y-45397748D01*
X115996081Y-45366619D01*
X115866880Y-45332000D01*
X115733120Y-45332000D01*
X115603919Y-45366619D01*
X115550000Y-45397748D01*
X115550000Y-44578000D01*
X114938679Y-44578000D01*
X114742479Y-44609075D01*
X114742476Y-44609075D01*
X114553562Y-44670457D01*
X114376567Y-44760641D01*
X114215860Y-44877403D01*
X114215859Y-44877403D01*
X114075403Y-45017859D01*
X114075403Y-45017860D01*
X113958641Y-45178567D01*
X113868456Y-45355564D01*
X113807074Y-45544482D01*
X113799865Y-45589999D01*
X111644777Y-45589999D01*
X111508845Y-45562960D01*
X111508842Y-45562960D01*
X110551158Y-45562960D01*
X110551155Y-45562960D01*
X110396510Y-45593721D01*
X110396498Y-45593724D01*
X110250827Y-45654062D01*
X110250814Y-45654069D01*
X110119711Y-45741670D01*
X110119707Y-45741673D01*
X110008213Y-45853167D01*
X110008210Y-45853171D01*
X109920609Y-45984274D01*
X109920602Y-45984287D01*
X109860264Y-46129958D01*
X109860261Y-46129970D01*
X109829500Y-46284613D01*
X109500500Y-46284613D01*
X109500500Y-41470600D01*
X109520185Y-41403561D01*
X109572989Y-41357806D01*
X109624500Y-41346600D01*
X109653400Y-41346600D01*
X118575500Y-41346600D01*
X118642539Y-41366285D01*
X118688294Y-41419089D01*
X118699500Y-41470600D01*
X118699500Y-42024167D01*
X118679815Y-42091206D01*
X118663181Y-42111848D01*
X117288388Y-43486641D01*
X117227065Y-43520126D01*
X117200707Y-43522960D01*
X112254838Y-43522960D01*
X112187799Y-43503275D01*
X112142044Y-43450471D01*
X112140275Y-43446409D01*
X112139394Y-43444281D01*
X112139391Y-43444276D01*
X112139390Y-43444274D01*
X112051789Y-43313171D01*
X112051786Y-43313167D01*
X111940292Y-43201673D01*
X111940288Y-43201670D01*
X111809185Y-43114069D01*
X111809172Y-43114062D01*
X111663501Y-43053724D01*
X111663489Y-43053721D01*
X111508845Y-43022960D01*
X111508842Y-43022960D01*
X110551158Y-43022960D01*
X110551155Y-43022960D01*
X110396510Y-43053721D01*
X110396498Y-43053724D01*
X110250827Y-43114062D01*
X110250814Y-43114069D01*
X110119711Y-43201670D01*
X110119707Y-43201673D01*
X110008213Y-43313167D01*
X110008210Y-43313171D01*
X109920609Y-43444274D01*
X109920602Y-43444287D01*
X109860264Y-43589958D01*
X109860261Y-43589970D01*
X109829500Y-43744613D01*
X109829500Y-43902306D01*
X109860261Y-44056949D01*
X109860264Y-44056961D01*
X109920602Y-44202632D01*
X109920609Y-44202645D01*
X110008210Y-44333748D01*
X110008213Y-44333752D01*
X110119707Y-44445246D01*
X110119711Y-44445249D01*
X110250814Y-44532850D01*
X110250827Y-44532857D01*
X110396498Y-44593195D01*
X110396503Y-44593197D01*
X110551153Y-44623959D01*
X110551156Y-44623960D01*
X110551158Y-44623960D01*
X111508844Y-44623960D01*
X111508845Y-44623959D01*
X111663497Y-44593197D01*
X111809179Y-44532854D01*
X111940289Y-44445249D01*
X112051789Y-44333749D01*
X112139394Y-44202639D01*
X112140275Y-44200509D01*
X112141035Y-44199566D01*
X112142264Y-44197269D01*
X112142699Y-44197501D01*
X112184115Y-44146106D01*
X112250408Y-44124039D01*
X112254838Y-44123960D01*
X117416100Y-44123960D01*
X117416102Y-44123960D01*
X117492529Y-44103481D01*
X117561051Y-44063920D01*
X117617000Y-44007971D01*
X119240460Y-42384511D01*
X119280021Y-42315989D01*
X119300500Y-42239562D01*
X119300500Y-37737738D01*
X119280021Y-37661311D01*
X119247438Y-37604875D01*
X119240464Y-37592795D01*
X119240458Y-37592787D01*
X119186619Y-37538948D01*
X119153134Y-37477625D01*
X119150300Y-37451267D01*
X119150300Y-35078449D01*
X119150299Y-35078447D01*
X119138668Y-35019970D01*
X119138667Y-35019969D01*
X119094352Y-34953647D01*
X119028030Y-34909332D01*
X119028029Y-34909331D01*
X118969552Y-34897700D01*
X118969548Y-34897700D01*
X118870600Y-34897700D01*
X118803561Y-34878015D01*
X118757806Y-34825211D01*
X118746600Y-34773700D01*
X118746600Y-32253400D01*
X109653400Y-32253400D01*
X109653400Y-34773700D01*
X109633715Y-34840739D01*
X109580911Y-34886494D01*
X109529400Y-34897700D01*
X109430447Y-34897700D01*
X109371970Y-34909331D01*
X109371969Y-34909332D01*
X109305647Y-34953647D01*
X109261332Y-35019969D01*
X109261331Y-35019970D01*
X109249700Y-35078447D01*
X109249700Y-37451267D01*
X109230015Y-37518306D01*
X109213381Y-37538948D01*
X108959541Y-37792787D01*
X108959535Y-37792795D01*
X108919982Y-37861304D01*
X108919979Y-37861309D01*
X108906326Y-37912262D01*
X108899500Y-37937738D01*
X89089500Y-37937738D01*
X89089500Y-37774254D01*
X89062673Y-37604875D01*
X89009679Y-37441777D01*
X88931824Y-37288978D01*
X88918945Y-37271251D01*
X88831029Y-37150244D01*
X88831025Y-37150239D01*
X88709760Y-37028974D01*
X88709755Y-37028970D01*
X88571025Y-36928178D01*
X88571024Y-36928177D01*
X88571022Y-36928176D01*
X88418223Y-36850321D01*
X88255125Y-36797327D01*
X88255123Y-36797326D01*
X88255122Y-36797326D01*
X88125009Y-36776718D01*
X88085746Y-36770500D01*
X87914254Y-36770500D01*
X87882379Y-36775548D01*
X87744877Y-36797326D01*
X87581774Y-36850322D01*
X87428974Y-36928178D01*
X87290244Y-37028970D01*
X87290239Y-37028974D01*
X87168974Y-37150239D01*
X87168970Y-37150244D01*
X87068178Y-37288974D01*
X86990322Y-37441774D01*
X86990321Y-37441776D01*
X86990321Y-37441777D01*
X86986759Y-37452738D01*
X86937326Y-37604877D01*
X86910500Y-37774254D01*
X86910500Y-37945745D01*
X86937326Y-38115122D01*
X86990323Y-38278228D01*
X87005615Y-38308241D01*
X87018511Y-38376910D01*
X86992234Y-38441650D01*
X86982811Y-38452216D01*
X86712181Y-38722847D01*
X86650858Y-38756332D01*
X86581167Y-38751348D01*
X86525233Y-38709477D01*
X86500816Y-38644012D01*
X86500500Y-38635166D01*
X86500500Y-35234254D01*
X86910500Y-35234254D01*
X86910500Y-35405745D01*
X86937326Y-35575122D01*
X86990322Y-35738225D01*
X87068178Y-35891025D01*
X87168970Y-36029755D01*
X87168974Y-36029760D01*
X87290239Y-36151025D01*
X87290244Y-36151029D01*
X87411251Y-36238945D01*
X87428978Y-36251824D01*
X87581777Y-36329679D01*
X87744875Y-36382673D01*
X87914254Y-36409500D01*
X87914255Y-36409500D01*
X88085745Y-36409500D01*
X88085746Y-36409500D01*
X88255125Y-36382673D01*
X88418223Y-36329679D01*
X88571022Y-36251824D01*
X88709762Y-36151024D01*
X88831024Y-36029762D01*
X88931824Y-35891022D01*
X89009679Y-35738223D01*
X89062673Y-35575125D01*
X89089500Y-35405746D01*
X89089500Y-35234254D01*
X89062673Y-35064875D01*
X89009679Y-34901777D01*
X88931824Y-34748978D01*
X88873100Y-34668151D01*
X88831029Y-34610244D01*
X88831025Y-34610239D01*
X88709760Y-34488974D01*
X88709755Y-34488970D01*
X88571025Y-34388178D01*
X88571024Y-34388177D01*
X88571022Y-34388176D01*
X88418223Y-34310321D01*
X88255125Y-34257327D01*
X88255123Y-34257326D01*
X88255122Y-34257326D01*
X88125009Y-34236718D01*
X88085746Y-34230500D01*
X87914254Y-34230500D01*
X87882379Y-34235548D01*
X87744877Y-34257326D01*
X87581774Y-34310322D01*
X87428974Y-34388178D01*
X87290244Y-34488970D01*
X87290239Y-34488974D01*
X87168974Y-34610239D01*
X87168970Y-34610244D01*
X87068178Y-34748974D01*
X86990322Y-34901774D01*
X86937326Y-35064877D01*
X86910500Y-35234254D01*
X86500500Y-35234254D01*
X86500500Y-34755832D01*
X86520185Y-34688793D01*
X86536815Y-34668155D01*
X87407784Y-33797185D01*
X87469105Y-33763702D01*
X87538796Y-33768686D01*
X87551758Y-33774383D01*
X87581777Y-33789679D01*
X87744875Y-33842673D01*
X87914254Y-33869500D01*
X87914255Y-33869500D01*
X88085745Y-33869500D01*
X88085746Y-33869500D01*
X88255125Y-33842673D01*
X88418223Y-33789679D01*
X88571022Y-33711824D01*
X88709762Y-33611024D01*
X88831024Y-33489762D01*
X88931824Y-33351022D01*
X89009679Y-33198223D01*
X89062673Y-33035125D01*
X89089500Y-32865746D01*
X89089500Y-32694254D01*
X89062673Y-32524875D01*
X89009679Y-32361777D01*
X88931824Y-32208978D01*
X88918945Y-32191251D01*
X88831029Y-32070244D01*
X88831025Y-32070239D01*
X88709760Y-31948974D01*
X88709755Y-31948970D01*
X88571025Y-31848178D01*
X88571024Y-31848177D01*
X88571022Y-31848176D01*
X88418223Y-31770321D01*
X88255125Y-31717327D01*
X88255123Y-31717326D01*
X88255122Y-31717326D01*
X88125009Y-31696718D01*
X88085746Y-31690500D01*
X87914254Y-31690500D01*
X87882379Y-31695548D01*
X87744877Y-31717326D01*
X87581774Y-31770322D01*
X87428974Y-31848178D01*
X87290244Y-31948970D01*
X87290239Y-31948974D01*
X87168974Y-32070239D01*
X87168970Y-32070244D01*
X87068178Y-32208974D01*
X86990322Y-32361774D01*
X86937326Y-32524877D01*
X86910500Y-32694254D01*
X86910500Y-32865745D01*
X86937326Y-33035122D01*
X86990323Y-33198228D01*
X87005615Y-33228241D01*
X87018511Y-33296910D01*
X86992234Y-33361650D01*
X86982811Y-33372216D01*
X86015489Y-34339540D01*
X85959541Y-34395487D01*
X85959535Y-34395495D01*
X85919982Y-34464004D01*
X85919979Y-34464009D01*
X85906326Y-34514962D01*
X85899500Y-34540438D01*
X85527500Y-34540438D01*
X85527500Y-30851500D01*
X85547185Y-30784461D01*
X85599989Y-30738706D01*
X85651500Y-30727500D01*
X119548500Y-30727500D01*
X119615539Y-30747185D01*
G37*
%TD.AperFunction*%
%TD*%
M02*
