M48
; DRILL file {KiCad 9.0.0} date 2025-03-14T09:10:58-0400
; FORMAT={-:-/ absolute / metric / decimal}
; #@! TF.CreationDate,2025-03-14T09:10:58-04:00
; #@! TF.GenerationSoftware,Kicad,Pcbnew,9.0.0
; #@! TF.FileFunction,Plated,1,2,PTH
FMAT,2
METRIC
; #@! TA.AperFunction,Plated,PTH,ComponentDrill
T1C0.800
; #@! TA.AperFunction,Plated,PTH,ComponentDrill
T2C0.900
; #@! TA.AperFunction,Plated,PTH,ComponentDrill
T3C1.016
%
G90
G05
T1
X88.17Y-43.823
X88.17Y-46.363
X88.17Y-48.903
X88.17Y-51.443
X88.17Y-53.983
X88.17Y-56.523
X88.17Y-59.063
X88.17Y-61.603
X88.17Y-64.143
X88.17Y-66.683
X88.17Y-69.223
X88.17Y-71.763
X88.17Y-74.303
X88.17Y-76.843
X88.17Y-79.383
X88.17Y-81.923
X111.03Y-43.823
X111.03Y-46.363
X111.03Y-48.903
X111.03Y-51.443
X111.03Y-53.983
X111.03Y-56.523
X111.03Y-59.063
X111.03Y-61.603
X111.03Y-64.143
X111.03Y-66.683
X111.03Y-69.223
X111.03Y-71.763
X111.03Y-74.303
X111.03Y-76.843
X111.03Y-79.383
X111.03Y-81.923
X115.8Y-70.6
X115.8Y-72.6
X115.8Y-74.6
T2
X88.0Y-32.78
X88.0Y-35.32
X88.0Y-37.86
X88.0Y-40.4
T3
X115.8Y-45.84
X115.8Y-48.38
X115.8Y-50.92
X115.8Y-53.46
X115.8Y-56.0
X115.8Y-59.394
X115.8Y-61.934
X115.8Y-64.474
X115.8Y-67.014
X115.8Y-78.2
X115.8Y-80.74
X115.8Y-83.28
X115.8Y-85.82
X115.8Y-88.36
M30
